<svg id="svg" version="1.1" xmlns="http://www.w3.org/2000/svg" xmlns:xlink="http://www.w3.org/1999/xlink" width="400" height="400" viewBox="0, 0, 400,400"><g id="svgg"><path id="path0" d="M149.750 20.171 C 131.469 20.279,111.831 20.529,96.750 20.846 C 92.167 20.942,84.967 21.091,80.750 21.177 C 59.777 21.602,52.173 21.974,51.472 22.609 C 51.304 22.761,51.166 22.817,51.164 22.734 C 51.163 22.651,51.106 22.661,51.039 22.755 C 50.972 22.850,50.516 23.181,50.026 23.491 C 49.537 23.801,49.049 24.137,48.943 24.238 C 48.837 24.338,48.538 24.557,48.279 24.723 C 48.020 24.889,47.633 25.177,47.419 25.363 C 47.205 25.549,46.971 25.712,46.899 25.725 C 46.767 25.750,46.228 26.174,45.649 26.708 C 45.475 26.869,45.258 27.000,45.167 27.000 C 45.075 27.000,45.000 27.065,45.000 27.145 C 45.000 27.224,44.719 27.479,44.375 27.712 C 44.031 27.944,43.520 28.348,43.239 28.609 C 42.959 28.870,42.362 29.383,41.913 29.748 C 41.464 30.114,40.885 30.620,40.626 30.873 C 40.367 31.126,40.083 31.333,39.994 31.333 C 39.906 31.333,39.833 31.396,39.833 31.473 C 39.833 31.550,39.102 32.252,38.208 33.033 C 36.264 34.732,28.065 42.878,25.833 45.327 C 24.184 47.137,23.860 47.489,22.741 48.691 C 22.370 49.090,21.510 50.054,20.830 50.833 C 20.151 51.612,19.555 52.288,19.506 52.333 C 19.457 52.379,18.967 52.942,18.417 53.583 C 17.867 54.225,17.360 54.775,17.292 54.806 C 17.223 54.836,17.167 54.967,17.167 55.097 C 17.167 55.227,17.103 55.333,17.025 55.333 C 16.946 55.333,16.516 55.802,16.067 56.375 C 14.942 57.813,14.788 58.002,14.487 58.312 C 14.343 58.461,14.005 58.883,13.737 59.250 C 13.469 59.617,13.171 59.992,13.074 60.083 C 12.977 60.175,12.684 60.550,12.424 60.917 C 12.163 61.283,11.866 61.658,11.763 61.750 C 11.660 61.842,11.280 62.329,10.918 62.833 C 10.557 63.337,10.216 63.788,10.161 63.833 C 10.106 63.879,9.807 64.290,9.497 64.746 C 9.186 65.202,8.839 65.690,8.725 65.830 C 8.611 65.969,8.218 66.496,7.850 67.000 C 7.483 67.504,7.104 68.007,7.008 68.118 C 6.912 68.229,6.833 68.391,6.833 68.479 C 6.833 68.567,6.777 68.664,6.708 68.694 C 6.532 68.773,5.167 70.825,5.167 71.012 C 5.167 71.097,5.101 71.167,5.020 71.167 C 4.940 71.167,4.778 71.398,4.661 71.681 C 4.544 71.964,4.356 72.287,4.244 72.399 C 3.608 73.035,1.241 77.647,0.480 79.734 L -0.000 81.051 -0.000 92.272 C -0.000 103.975,-0.020 103.569,0.733 107.333 C 0.871 108.021,1.141 109.108,1.334 109.750 C 1.527 110.392,1.714 111.067,1.749 111.250 C 1.856 111.807,2.624 113.786,3.226 115.053 C 3.538 115.711,3.840 116.362,3.895 116.500 C 4.071 116.931,5.704 119.912,5.813 120.000 C 5.978 120.133,6.334 120.723,6.441 121.042 C 6.495 121.202,6.605 121.333,6.686 121.333 C 6.767 121.333,6.833 121.408,6.833 121.499 C 6.833 121.737,8.366 123.833,8.540 123.833 C 8.621 123.833,8.640 123.909,8.583 124.001 C 8.526 124.093,8.596 124.214,8.739 124.269 C 8.883 124.324,9.000 124.467,9.000 124.587 C 9.000 124.707,9.065 124.831,9.143 124.861 C 9.222 124.892,9.727 125.442,10.266 126.083 C 11.115 127.095,12.088 128.084,14.667 130.556 C 14.987 130.863,15.700 131.445,16.250 131.849 C 16.800 132.253,17.325 132.664,17.417 132.764 C 17.719 133.091,19.806 134.500,19.988 134.500 C 20.086 134.500,20.167 134.563,20.167 134.640 C 20.167 134.717,20.335 134.869,20.542 134.978 C 20.748 135.088,21.292 135.396,21.750 135.665 C 23.643 136.773,28.128 138.833,28.648 138.833 C 28.744 138.833,29.068 138.937,29.369 139.064 C 30.304 139.457,31.535 139.799,32.750 140.004 C 33.392 140.112,34.292 140.277,34.750 140.369 C 37.949 141.015,44.706 140.515,48.917 139.321 C 49.558 139.139,50.496 138.878,51.000 138.742 C 51.504 138.606,52.142 138.387,52.417 138.257 C 52.692 138.126,53.517 137.783,54.250 137.493 C 56.233 136.710,57.500 136.114,57.500 135.965 C 57.500 135.893,57.597 135.833,57.715 135.833 C 57.928 135.833,61.507 133.719,61.667 133.498 C 61.712 133.435,62.057 133.191,62.432 132.956 C 62.807 132.722,63.219 132.428,63.348 132.305 C 63.478 132.181,64.088 131.687,64.705 131.206 C 65.874 130.296,68.539 127.673,69.833 126.160 C 70.246 125.678,70.715 125.144,70.875 124.975 C 71.035 124.805,71.167 124.592,71.167 124.500 C 71.167 124.408,71.225 124.333,71.297 124.333 C 71.369 124.333,71.559 124.111,71.720 123.839 C 71.880 123.568,72.104 123.249,72.217 123.131 C 72.439 122.901,73.638 120.977,74.357 119.700 C 76.033 116.723,77.330 113.547,78.217 110.250 C 78.511 109.157,78.661 108.435,79.114 105.917 C 79.442 104.095,79.475 104.130,79.738 106.583 C 79.990 108.929,81.715 114.809,82.636 116.458 C 82.751 116.665,82.807 116.833,82.760 116.833 C 82.714 116.833,82.880 117.190,83.131 117.625 C 83.382 118.060,83.688 118.642,83.813 118.917 C 84.077 119.501,84.083 119.512,85.102 121.250 C 85.532 121.983,85.934 122.621,85.996 122.667 C 86.058 122.712,86.250 122.994,86.423 123.292 C 86.597 123.590,86.797 123.833,86.869 123.833 C 86.941 123.833,87.001 123.927,87.002 124.042 C 87.007 124.593,91.174 129.155,93.250 130.882 C 93.800 131.340,94.287 131.765,94.333 131.828 C 94.480 132.028,97.459 134.167,97.591 134.167 C 97.661 134.167,97.951 134.341,98.234 134.554 C 98.683 134.892,100.107 135.702,101.750 136.554 C 102.539 136.963,103.894 137.556,104.147 137.602 C 104.273 137.625,104.457 137.724,104.555 137.822 C 104.653 137.920,104.891 138.000,105.083 138.000 C 105.276 138.000,105.505 138.064,105.592 138.141 C 105.926 138.440,110.346 139.692,112.083 139.981 C 119.026 141.134,125.329 140.718,131.583 138.693 C 132.525 138.388,132.861 138.261,134.083 137.746 C 134.358 137.630,134.771 137.460,135.000 137.368 C 135.750 137.068,137.566 136.166,138.417 135.671 C 138.875 135.404,139.569 135.018,139.958 134.813 C 140.348 134.608,140.667 134.384,140.667 134.315 C 140.667 134.246,140.803 134.146,140.971 134.093 C 141.138 134.040,141.419 133.863,141.596 133.701 C 141.772 133.539,142.179 133.245,142.500 133.047 C 142.821 132.850,143.234 132.553,143.418 132.386 C 143.601 132.220,144.239 131.674,144.834 131.173 C 146.336 129.911,147.603 128.619,149.511 126.402 C 151.131 124.520,153.543 120.771,154.648 118.417 C 154.949 117.775,155.264 117.138,155.349 117.000 C 155.433 116.862,155.546 116.638,155.600 116.500 C 155.653 116.362,155.759 116.100,155.835 115.917 C 156.581 114.117,157.677 110.503,157.984 108.833 C 158.571 105.631,158.669 105.016,158.686 104.417 C 158.708 103.649,158.738 103.763,158.994 105.583 C 159.401 108.481,159.866 110.499,160.587 112.500 C 161.087 113.889,161.713 115.451,161.940 115.875 C 162.075 116.127,162.151 116.333,162.108 116.333 C 162.004 116.333,163.821 119.833,164.012 120.000 C 164.065 120.046,164.159 120.196,164.222 120.333 C 164.633 121.230,167.544 125.272,168.197 125.853 C 168.364 126.001,168.500 126.170,168.500 126.227 C 168.500 126.347,172.471 130.333,172.591 130.333 C 172.634 130.333,172.903 130.557,173.189 130.830 C 173.475 131.102,174.154 131.646,174.700 132.038 C 175.245 132.430,176.014 132.990,176.408 133.283 C 176.802 133.576,177.490 134.019,177.937 134.267 C 178.384 134.514,178.787 134.763,178.833 134.820 C 179.077 135.121,183.683 137.394,184.210 137.474 C 184.280 137.485,184.542 137.598,184.793 137.725 C 185.496 138.083,189.129 139.260,190.250 139.494 C 190.800 139.609,191.737 139.803,192.333 139.926 C 197.004 140.888,202.642 140.907,207.333 139.977 C 207.838 139.877,208.438 139.775,208.667 139.750 C 209.465 139.664,213.092 138.632,214.250 138.162 C 214.525 138.050,214.900 137.900,215.083 137.829 C 216.887 137.127,217.790 136.743,218.000 136.587 C 218.137 136.486,218.625 136.225,219.083 136.007 C 219.968 135.587,223.193 133.691,223.333 133.508 C 223.379 133.448,223.700 133.227,224.046 133.017 C 224.392 132.806,224.767 132.544,224.879 132.434 C 224.992 132.324,225.533 131.902,226.083 131.497 C 229.734 128.806,234.889 122.518,237.132 118.020 C 237.423 117.435,237.747 116.854,237.851 116.728 C 237.955 116.603,237.985 116.500,237.917 116.500 C 237.848 116.500,237.869 116.406,237.963 116.292 C 238.172 116.035,239.230 113.331,239.739 111.750 C 240.195 110.337,240.740 107.906,241.021 106.039 C 241.265 104.412,241.387 104.453,241.651 106.250 C 241.888 107.870,242.097 108.931,242.440 110.250 C 242.902 112.028,243.521 114.071,243.754 114.583 C 243.879 114.858,244.261 115.796,244.604 116.667 C 244.946 117.537,245.307 118.362,245.407 118.500 C 245.507 118.638,245.812 119.200,246.086 119.750 C 246.360 120.300,246.630 120.787,246.687 120.833 C 246.745 120.879,246.932 121.179,247.104 121.501 C 247.276 121.822,247.585 122.321,247.792 122.610 C 247.998 122.899,248.167 123.183,248.167 123.241 C 248.167 123.352,248.377 123.630,248.875 124.179 C 249.035 124.355,249.167 124.569,249.167 124.653 C 249.167 124.737,249.223 124.831,249.292 124.861 C 249.360 124.892,249.616 125.183,249.859 125.509 C 250.654 126.575,251.058 127.023,253.000 128.990 C 255.095 131.112,256.072 132.000,256.315 132.000 C 256.401 132.000,256.497 132.072,256.528 132.161 C 256.558 132.249,257.333 132.848,258.250 133.493 C 259.167 134.137,259.995 134.721,260.092 134.791 C 260.676 135.211,265.500 137.676,265.500 137.555 C 265.500 137.514,265.706 137.593,265.958 137.729 C 266.416 137.977,268.005 138.552,269.583 139.042 C 276.283 141.121,286.605 141.104,292.062 139.004 C 292.257 138.929,292.754 138.776,293.167 138.664 C 293.579 138.552,294.160 138.357,294.458 138.230 C 295.265 137.888,296.032 137.568,296.500 137.378 C 298.176 136.701,301.520 134.868,302.856 133.896 C 303.280 133.586,303.712 133.333,303.814 133.333 C 303.916 133.333,304.000 133.260,304.000 133.171 C 304.000 133.082,304.206 132.899,304.458 132.765 C 304.710 132.631,305.120 132.329,305.368 132.094 C 305.616 131.859,305.853 131.667,305.896 131.667 C 306.180 131.667,310.203 127.721,311.250 126.415 C 311.617 125.958,311.957 125.546,312.005 125.500 C 312.054 125.454,312.389 125.004,312.750 124.500 C 313.111 123.996,313.446 123.546,313.495 123.500 C 313.687 123.320,314.667 121.855,314.667 121.748 C 314.667 121.686,314.808 121.436,314.981 121.192 C 315.346 120.677,316.208 119.111,316.783 117.917 C 317.004 117.458,317.256 116.952,317.344 116.792 C 318.033 115.528,319.648 110.469,319.990 108.500 C 320.094 107.904,320.311 106.704,320.473 105.834 L 320.767 104.251 320.980 105.750 C 321.232 107.531,321.581 109.268,321.916 110.417 C 322.050 110.875,322.267 111.625,322.398 112.083 C 322.911 113.883,325.240 119.307,325.654 119.667 C 325.784 119.779,326.090 120.280,326.521 121.083 C 326.717 121.450,326.926 121.787,326.984 121.833 C 327.043 121.879,327.405 122.404,327.790 123.000 C 328.175 123.596,328.664 124.271,328.876 124.500 C 329.088 124.729,329.377 125.083,329.518 125.286 C 330.132 126.174,333.527 129.833,333.736 129.833 C 333.771 129.833,334.051 130.078,334.358 130.377 C 334.665 130.676,335.208 131.145,335.565 131.419 C 335.921 131.693,336.304 132.005,336.416 132.113 C 336.527 132.221,336.838 132.446,337.106 132.613 C 337.374 132.780,338.088 133.273,338.693 133.708 C 339.298 134.144,339.835 134.500,339.888 134.500 C 339.940 134.500,340.306 134.715,340.700 134.979 C 341.094 135.242,341.867 135.669,342.417 135.928 C 342.967 136.187,343.529 136.484,343.667 136.587 C 343.880 136.747,345.453 137.401,347.667 138.250 C 348.628 138.618,350.855 139.287,351.833 139.501 C 352.337 139.612,353.200 139.802,353.750 139.924 C 356.070 140.439,359.265 140.714,361.861 140.622 C 364.262 140.537,365.082 140.437,367.333 139.956 C 367.837 139.849,368.327 139.757,368.422 139.752 C 368.789 139.735,372.269 138.610,373.167 138.218 C 373.912 137.893,375.251 137.285,376.000 136.930 C 377.857 136.052,381.181 133.982,382.513 132.875 C 382.762 132.669,383.048 132.500,383.149 132.500 C 383.250 132.500,383.333 132.442,383.333 132.372 C 383.333 132.301,383.723 131.945,384.200 131.580 C 385.932 130.255,389.893 126.138,391.460 124.034 C 391.986 123.328,392.473 122.725,392.542 122.694 C 392.610 122.664,392.667 122.539,392.667 122.417 C 392.667 122.294,392.725 122.169,392.797 122.139 C 392.987 122.058,394.833 119.082,394.833 118.857 C 394.833 118.752,394.901 118.667,394.984 118.667 C 395.066 118.667,395.213 118.460,395.309 118.208 C 395.405 117.956,395.635 117.487,395.820 117.167 C 396.204 116.501,397.333 114.070,397.333 113.908 C 397.333 113.849,397.438 113.564,397.566 113.275 C 397.769 112.815,398.046 111.996,398.926 109.250 C 399.044 108.883,399.221 108.133,399.319 107.583 C 399.418 107.033,399.611 106.005,399.749 105.299 C 399.958 104.231,400.000 102.064,400.000 92.449 L 400.000 80.885 399.516 79.544 C 399.061 78.284,398.596 77.269,397.663 75.500 C 397.446 75.087,397.225 74.712,397.172 74.667 C 397.120 74.621,396.986 74.396,396.875 74.167 C 396.765 73.938,396.487 73.450,396.258 73.083 C 396.029 72.717,395.717 72.192,395.565 71.917 C 395.412 71.642,395.073 71.143,394.810 70.809 C 394.548 70.475,394.333 70.119,394.333 70.018 C 394.333 69.916,394.270 69.833,394.193 69.833 C 394.116 69.833,393.975 69.665,393.880 69.458 C 393.724 69.122,389.242 62.869,389.011 62.667 C 388.959 62.621,388.657 62.246,388.340 61.833 C 388.022 61.421,387.703 61.058,387.631 61.028 C 387.559 60.997,387.500 60.872,387.500 60.750 C 387.500 60.628,387.439 60.503,387.364 60.472 C 387.289 60.442,386.822 59.892,386.326 59.250 C 385.830 58.608,385.376 58.046,385.317 58.000 C 385.259 57.954,384.661 57.242,383.990 56.417 C 383.318 55.592,382.686 54.832,382.584 54.729 C 382.482 54.626,382.141 54.224,381.825 53.835 C 381.509 53.447,381.044 52.918,380.792 52.660 C 380.540 52.403,380.333 52.163,380.333 52.128 C 380.333 52.058,378.870 50.395,378.125 49.619 C 377.873 49.356,377.667 49.118,377.667 49.090 C 377.667 49.062,377.385 48.748,377.042 48.393 C 376.698 48.038,375.779 47.042,375.000 46.181 C 371.550 42.367,364.353 35.207,361.333 32.583 C 360.829 32.145,360.296 31.666,360.149 31.518 C 360.002 31.371,359.664 31.068,359.399 30.846 C 358.632 30.204,356.758 28.592,356.667 28.496 C 356.621 28.447,356.246 28.149,355.833 27.833 C 355.421 27.517,355.046 27.217,355.000 27.167 C 354.954 27.116,354.579 26.815,354.167 26.497 C 353.754 26.179,353.392 25.862,353.361 25.793 C 353.331 25.723,353.213 25.667,353.101 25.667 C 352.988 25.667,352.716 25.498,352.495 25.293 C 351.983 24.816,351.029 24.167,350.840 24.167 C 350.760 24.167,350.669 24.106,350.639 24.032 C 350.567 23.859,349.118 22.868,348.976 22.896 C 348.917 22.907,348.706 22.770,348.509 22.591 C 348.109 22.230,344.455 22.030,331.583 21.667 C 328.283 21.574,323.146 21.419,320.167 21.324 C 317.188 21.228,314.150 21.154,313.417 21.158 C 312.683 21.162,307.921 21.054,302.833 20.918 C 271.234 20.076,213.431 19.794,149.750 20.171 M158.163 130.292 C 158.161 130.452,158.013 130.771,157.833 131.000 C 157.654 131.229,157.503 131.492,157.497 131.583 C 157.491 131.675,157.265 132.010,156.993 132.327 C 156.722 132.644,156.500 132.994,156.500 133.105 C 156.500 133.215,156.439 133.331,156.365 133.361 C 156.291 133.392,155.976 133.792,155.665 134.250 C 155.354 134.708,155.021 135.167,154.925 135.268 C 154.829 135.370,154.525 135.740,154.250 136.091 C 153.836 136.618,151.613 139.015,150.246 140.406 C 149.745 140.916,147.492 142.914,146.917 143.358 C 146.642 143.570,146.392 143.802,146.361 143.872 C 146.331 143.942,146.234 144.000,146.146 144.000 C 145.985 144.000,145.750 144.168,145.155 144.708 C 144.978 144.869,144.784 145.000,144.724 145.000 C 144.664 145.000,144.369 145.188,144.069 145.417 C 143.768 145.646,143.442 145.833,143.344 145.833 C 143.247 145.833,143.167 145.891,143.167 145.962 C 143.167 146.033,142.885 146.239,142.542 146.420 C 142.198 146.601,141.668 146.914,141.365 147.116 C 141.062 147.317,140.349 147.714,139.782 147.999 C 139.214 148.283,138.637 148.580,138.500 148.660 C 138.068 148.910,136.446 149.609,135.750 149.844 C 135.383 149.968,135.007 150.123,134.915 150.189 C 134.822 150.255,134.334 150.457,133.831 150.638 C 125.259 153.729,115.728 154.202,106.917 151.974 C 105.833 151.700,104.453 151.300,103.917 151.103 C 103.642 151.003,103.379 150.919,103.333 150.917 C 103.287 150.915,102.987 150.811,102.667 150.687 C 98.651 149.131,96.816 148.230,93.282 146.083 C 92.726 145.745,89.820 143.675,89.667 143.508 C 89.621 143.458,89.210 143.117,88.753 142.750 C 86.851 141.224,84.374 138.791,82.984 137.083 C 81.858 135.701,79.667 132.738,79.667 132.599 C 79.667 132.413,78.284 130.333,78.160 130.333 C 78.086 130.333,77.792 130.739,77.509 131.235 C 77.077 131.989,75.706 133.854,74.250 135.668 C 73.827 136.194,68.045 141.971,67.495 142.417 C 67.268 142.600,66.785 142.969,66.420 143.237 C 66.055 143.505,65.568 143.899,65.338 144.112 C 65.108 144.325,64.868 144.500,64.805 144.500 C 64.742 144.500,64.591 144.600,64.469 144.722 C 64.254 144.936,61.340 146.808,60.833 147.057 C 60.380 147.280,59.873 147.593,59.601 147.819 C 59.454 147.941,59.333 147.996,59.333 147.941 C 59.333 147.887,58.955 148.065,58.493 148.338 C 58.030 148.610,57.613 148.833,57.566 148.833 C 57.518 148.833,57.053 149.027,56.531 149.263 C 56.010 149.500,55.396 149.769,55.167 149.862 C 54.938 149.955,54.538 150.136,54.278 150.265 C 54.019 150.394,53.677 150.500,53.520 150.500 C 53.362 150.500,53.152 150.581,53.053 150.681 C 52.704 151.030,47.151 152.457,44.750 152.815 C 40.792 153.406,37.118 153.517,35.500 153.094 C 34.904 152.939,34.154 152.743,33.833 152.660 C 32.988 152.440,33.000 152.431,33.000 153.260 C 33.000 153.678,32.927 154.709,32.839 155.551 C 32.584 157.972,31.811 167.328,31.811 168.000 C 31.811 168.229,31.706 169.954,31.577 171.833 C 30.383 189.348,30.172 199.820,30.121 244.083 C 30.084 276.621,30.127 280.605,30.671 294.667 C 30.870 299.793,31.245 306.205,31.583 310.250 C 31.714 311.808,31.901 314.096,32.000 315.333 C 32.100 316.571,32.291 318.596,32.426 319.833 C 32.560 321.071,32.748 322.833,32.843 323.750 C 32.937 324.667,33.121 326.129,33.251 327.000 C 33.380 327.871,33.568 329.258,33.668 330.083 C 33.768 330.908,33.954 332.146,34.083 332.833 C 34.211 333.521,34.399 334.646,34.500 335.333 C 34.707 336.739,35.187 339.220,35.839 342.250 C 35.917 342.617,36.014 343.104,36.054 343.333 C 36.094 343.563,36.251 344.200,36.404 344.750 C 36.557 345.300,36.745 346.050,36.823 346.417 C 37.023 347.355,37.772 350.136,38.013 350.833 C 38.123 351.154,38.306 351.679,38.418 352.000 C 38.531 352.321,38.714 352.883,38.825 353.250 C 39.667 356.027,41.861 361.095,43.225 363.417 C 44.049 364.820,45.213 366.500,45.361 366.500 C 45.437 366.500,45.500 366.606,45.500 366.736 C 45.500 366.866,45.556 366.997,45.625 367.028 C 45.694 367.058,46.101 367.502,46.530 368.013 C 47.308 368.940,47.316 368.944,48.780 369.230 C 49.589 369.388,50.663 369.620,51.167 369.745 C 52.639 370.111,54.673 370.503,57.625 370.992 C 58.152 371.079,59.221 371.262,60.000 371.397 C 63.317 371.974,64.487 372.168,65.667 372.336 C 66.354 372.434,67.629 372.620,68.500 372.750 C 73.161 373.445,75.591 373.755,79.583 374.164 C 80.317 374.239,81.517 374.380,82.250 374.476 C 85.250 374.869,89.531 375.307,93.917 375.669 C 95.108 375.767,97.471 375.991,99.167 376.166 C 100.862 376.341,103.487 376.566,105.000 376.667 C 106.513 376.768,109.138 376.957,110.833 377.088 C 112.529 377.219,115.267 377.403,116.917 377.499 C 118.567 377.594,121.679 377.781,123.833 377.916 C 131.186 378.374,153.167 379.275,160.417 379.414 C 162.708 379.459,166.983 379.578,169.917 379.680 C 176.999 379.926,223.179 379.924,230.083 379.678 C 232.925 379.576,237.350 379.454,239.917 379.407 C 242.483 379.359,246.946 379.212,249.833 379.080 C 252.721 378.947,255.608 378.843,256.250 378.848 C 256.892 378.853,259.067 378.775,261.083 378.674 C 263.100 378.574,266.400 378.418,268.417 378.328 C 270.433 378.238,273.846 378.054,276.000 377.919 C 278.154 377.784,281.342 377.594,283.083 377.496 C 284.825 377.399,287.600 377.213,289.250 377.082 C 290.900 376.952,293.450 376.765,294.917 376.667 C 296.383 376.570,298.971 376.348,300.667 376.174 C 302.362 376.000,303.938 375.857,304.167 375.856 C 304.396 375.855,305.296 375.779,306.167 375.686 C 307.037 375.594,308.650 375.436,309.750 375.335 C 310.850 375.234,312.425 375.070,313.250 374.971 C 314.075 374.873,315.387 374.736,316.167 374.667 C 316.946 374.599,318.258 374.454,319.083 374.345 C 319.908 374.237,321.183 374.079,321.917 373.995 C 322.650 373.912,323.962 373.761,324.833 373.661 C 325.704 373.561,327.129 373.374,328.000 373.246 C 328.871 373.117,330.408 372.893,331.417 372.748 C 335.085 372.221,335.609 372.142,337.083 371.896 C 337.908 371.759,339.108 371.544,339.750 371.419 C 340.392 371.293,341.038 371.198,341.186 371.207 C 341.335 371.215,341.785 371.140,342.186 371.041 C 342.588 370.941,343.479 370.772,344.167 370.665 C 344.854 370.559,345.867 370.373,346.417 370.251 C 346.967 370.130,348.017 369.905,348.750 369.751 C 349.483 369.597,350.383 369.406,350.750 369.325 C 351.117 369.245,351.649 369.136,351.932 369.082 C 352.437 368.987,352.993 368.508,353.962 367.333 C 354.590 366.573,355.833 364.869,355.833 364.770 C 355.833 364.728,356.191 364.106,356.628 363.388 C 357.698 361.632,359.667 357.565,359.667 357.112 C 359.667 356.995,359.736 356.829,359.822 356.742 C 359.974 356.586,360.719 354.569,360.989 353.583 C 361.064 353.308,361.251 352.746,361.404 352.333 C 361.884 351.040,362.830 347.662,363.341 345.417 C 363.508 344.683,363.716 343.821,363.802 343.500 C 363.889 343.179,364.048 342.467,364.156 341.917 C 364.264 341.367,364.467 340.354,364.606 339.667 C 365.109 337.188,365.320 336.065,365.482 335.000 C 365.573 334.404,365.759 333.242,365.895 332.417 C 366.031 331.592,366.219 330.317,366.313 329.583 C 366.407 328.850,366.596 327.425,366.732 326.417 C 367.827 318.328,368.919 304.097,369.328 292.583 C 369.802 279.232,369.876 270.247,369.773 238.250 C 369.635 195.092,369.468 187.167,368.400 172.825 C 368.259 170.941,368.166 169.329,368.191 169.242 C 368.245 169.062,367.934 164.846,367.584 161.000 C 367.454 159.579,367.267 157.404,367.167 156.167 C 366.833 152.042,366.965 152.463,366.079 152.684 C 363.683 153.281,363.111 153.365,361.500 153.352 C 357.499 153.322,352.527 152.534,348.917 151.360 C 348.183 151.121,347.546 150.923,347.500 150.919 C 347.454 150.916,347.154 150.813,346.833 150.691 C 344.430 149.775,344.517 149.810,343.250 149.257 C 342.700 149.017,342.137 148.750,342.000 148.663 C 341.704 148.476,340.604 147.976,340.536 147.997 C 340.510 148.005,340.373 147.897,340.232 147.756 C 340.091 147.615,339.869 147.500,339.738 147.500 C 339.607 147.500,339.500 147.426,339.500 147.337 C 339.500 147.247,339.312 147.126,339.083 147.068 C 338.854 147.011,338.667 146.906,338.667 146.835 C 338.667 146.764,338.535 146.660,338.375 146.605 C 337.757 146.392,333.938 143.711,332.754 142.658 C 332.477 142.412,331.875 141.879,331.417 141.474 C 330.397 140.572,326.326 136.396,325.397 135.298 C 324.832 134.631,322.938 131.990,322.405 131.125 C 321.773 130.102,321.693 130.120,320.917 131.458 C 320.274 132.568,319.018 134.505,318.836 134.667 C 318.784 134.712,318.600 134.975,318.425 135.250 C 317.941 136.014,315.817 138.500,315.649 138.500 C 315.567 138.500,315.500 138.582,315.500 138.682 C 315.500 138.960,311.948 142.311,310.960 142.966 C 310.753 143.103,310.508 143.301,310.417 143.406 C 310.274 143.568,308.347 144.979,307.389 145.622 C 306.244 146.391,305.808 146.659,304.998 147.093 C 304.495 147.363,304.046 147.628,304.000 147.683 C 303.700 148.041,296.965 150.977,296.799 150.822 C 296.772 150.797,296.575 150.870,296.362 150.985 C 295.524 151.433,291.278 152.480,288.917 152.821 C 283.823 153.556,279.822 153.556,274.750 152.821 C 273.021 152.570,270.239 151.959,269.083 151.576 C 268.717 151.455,267.892 151.195,267.250 151.000 C 266.608 150.805,265.783 150.511,265.417 150.347 C 265.050 150.183,264.225 149.834,263.583 149.572 C 262.306 149.050,258.718 147.250,258.357 146.951 C 258.046 146.692,257.475 146.360,257.125 146.233 C 256.965 146.175,256.833 146.062,256.833 145.981 C 256.833 145.900,256.756 145.833,256.661 145.833 C 256.406 145.833,253.155 143.439,252.305 142.625 C 252.137 142.465,251.963 142.333,251.917 142.333 C 251.871 142.333,251.696 142.202,251.529 142.042 C 251.362 141.881,250.893 141.441,250.487 141.063 C 249.387 140.038,246.322 136.822,245.750 136.092 C 245.475 135.741,245.172 135.370,245.077 135.268 C 244.981 135.167,244.456 134.408,243.910 133.583 C 243.364 132.758,242.871 132.046,242.814 132.000 C 242.758 131.954,242.469 131.485,242.173 130.958 C 241.560 129.866,241.478 129.826,241.157 130.458 C 240.795 131.172,239.441 133.244,239.296 133.306 C 239.225 133.336,239.167 133.467,239.167 133.597 C 239.167 133.727,239.109 133.833,239.038 133.833 C 238.967 133.833,238.768 134.096,238.595 134.417 C 238.422 134.737,238.218 135.000,238.140 135.000 C 238.063 135.000,238.000 135.069,238.000 135.153 C 238.000 135.236,237.853 135.480,237.674 135.694 C 235.891 137.824,235.106 138.694,234.019 139.746 C 232.334 141.376,231.568 142.076,230.667 142.808 C 230.254 143.143,229.892 143.473,229.861 143.542 C 229.831 143.610,229.706 143.667,229.583 143.667 C 229.461 143.667,229.336 143.730,229.306 143.807 C 229.257 143.931,227.760 145.059,226.898 145.622 C 226.725 145.735,226.321 146.001,226.000 146.213 C 225.679 146.426,225.304 146.654,225.167 146.722 C 225.029 146.789,224.542 147.060,224.083 147.325 C 222.888 148.016,219.541 149.667,219.336 149.667 C 219.240 149.667,219.032 149.731,218.873 149.809 C 217.672 150.399,216.170 150.975,215.167 151.231 C 214.662 151.359,214.063 151.545,213.833 151.644 C 213.604 151.743,212.892 151.931,212.250 152.061 C 211.608 152.192,210.746 152.379,210.333 152.477 C 206.886 153.295,198.591 153.661,194.417 153.180 C 191.433 152.836,190.099 152.640,189.167 152.409 C 188.662 152.283,187.735 152.059,187.104 151.911 C 186.474 151.762,185.799 151.579,185.604 151.504 C 185.410 151.429,184.912 151.277,184.500 151.166 C 183.733 150.960,182.805 150.634,181.917 150.258 C 181.642 150.142,181.229 149.972,181.000 149.880 C 179.892 149.436,178.339 148.708,177.640 148.306 C 177.212 148.060,176.829 147.893,176.789 147.934 C 176.748 147.975,176.619 147.894,176.503 147.754 C 176.387 147.614,176.232 147.500,176.157 147.500 C 175.982 147.500,173.355 145.905,172.998 145.581 C 172.847 145.445,172.636 145.333,172.529 145.333 C 172.421 145.333,172.333 145.275,172.333 145.203 C 172.333 145.131,172.111 144.941,171.839 144.780 C 171.568 144.620,171.249 144.397,171.131 144.286 C 171.013 144.174,170.467 143.751,169.917 143.344 C 169.367 142.937,168.748 142.412,168.542 142.177 C 168.336 141.942,168.167 141.799,168.167 141.858 C 168.166 142.184,163.066 136.876,162.333 135.788 C 162.104 135.448,161.860 135.168,161.792 135.168 C 161.723 135.167,161.667 135.054,161.667 134.917 C 161.667 134.779,161.608 134.667,161.536 134.667 C 161.464 134.667,161.263 134.423,161.090 134.125 C 160.917 133.827,160.732 133.546,160.679 133.500 C 160.452 133.303,159.833 132.332,159.833 132.173 C 159.833 132.078,159.758 132.000,159.667 132.000 C 159.575 132.000,159.500 131.934,159.500 131.853 C 159.500 131.634,158.437 130.008,158.292 130.004 C 158.223 130.002,158.165 130.131,158.163 130.292 M134.990 173.836 C 140.151 174.289,147.167 176.142,149.500 177.668 C 149.729 177.818,150.217 178.078,150.583 178.246 C 151.240 178.547,153.591 179.930,153.917 180.206 C 154.008 180.284,154.683 180.773,155.417 181.291 C 156.150 181.810,156.787 182.277,156.833 182.330 C 156.879 182.382,157.254 182.683,157.667 182.998 C 158.811 183.873,159.012 184.057,161.896 186.883 L 164.583 189.517 166.583 189.271 C 167.683 189.135,169.783 188.942,171.250 188.841 C 172.717 188.739,175.417 188.550,177.250 188.419 C 189.304 187.560,210.696 187.560,222.750 188.419 C 224.583 188.550,227.283 188.739,228.750 188.839 C 230.217 188.939,232.303 189.137,233.386 189.280 L 235.355 189.538 237.886 187.061 C 239.278 185.698,240.538 184.452,240.686 184.292 C 240.834 184.131,240.999 184.000,241.053 184.000 C 241.106 184.000,241.360 183.805,241.616 183.567 C 241.873 183.329,242.646 182.717,243.333 182.208 C 244.021 181.699,244.677 181.167,244.792 181.026 C 244.906 180.885,245.001 180.840,245.003 180.926 C 245.004 181.013,245.060 181.005,245.128 180.908 C 245.301 180.661,247.386 179.303,248.669 178.603 C 251.597 177.005,254.699 175.742,257.083 175.177 C 257.542 175.069,258.329 174.879,258.833 174.754 C 264.240 173.423,277.927 173.185,282.750 174.339 C 284.497 174.756,287.611 175.711,288.123 175.985 C 288.285 176.072,288.754 176.292,289.167 176.474 C 290.469 177.049,291.400 177.496,291.917 177.797 C 292.192 177.956,292.867 178.345,293.417 178.660 C 294.366 179.205,297.665 181.509,298.139 181.960 C 298.262 182.077,298.637 182.374,298.973 182.621 C 299.886 183.294,305.294 188.787,306.250 190.014 C 306.708 190.602,307.140 191.108,307.208 191.139 C 307.277 191.169,307.333 191.263,307.333 191.347 C 307.333 191.431,307.465 191.634,307.625 191.797 C 308.031 192.211,308.702 193.087,309.438 194.167 C 311.373 197.005,312.502 198.743,312.590 199.020 C 312.644 199.192,312.745 199.333,312.813 199.333 C 312.882 199.333,313.041 199.596,313.167 199.917 C 313.293 200.237,313.449 200.500,313.515 200.500 C 313.580 200.500,313.716 200.706,313.817 200.958 C 313.918 201.210,314.161 201.679,314.357 202.000 C 314.672 202.515,315.515 204.092,316.896 206.750 C 317.134 207.208,317.659 208.296,318.062 209.167 C 318.465 210.037,319.029 211.253,319.314 211.868 C 319.600 212.483,319.833 213.093,319.833 213.223 C 319.833 213.353,319.946 213.553,320.083 213.667 C 320.221 213.781,320.334 213.959,320.334 214.062 C 320.334 214.165,320.789 215.375,321.345 216.750 C 321.901 218.125,322.385 219.362,322.421 219.500 C 322.519 219.871,322.905 220.892,323.020 221.083 C 323.075 221.175,323.250 221.700,323.409 222.250 C 323.567 222.800,323.794 223.550,323.914 223.917 C 324.033 224.283,324.221 224.958,324.331 225.417 C 324.512 226.166,324.630 226.583,325.190 228.451 C 325.278 228.745,325.378 229.120,325.412 229.284 C 325.446 229.449,325.601 230.033,325.757 230.583 C 326.058 231.648,326.525 233.326,327.311 236.167 C 327.577 237.129,327.997 238.629,328.243 239.500 C 328.489 240.371,328.757 241.346,328.837 241.667 C 328.917 241.987,329.106 242.662,329.257 243.167 C 329.408 243.671,329.595 244.346,329.672 244.667 C 329.749 244.987,329.971 245.775,330.166 246.417 C 330.360 247.058,330.551 247.733,330.590 247.917 C 330.685 248.365,331.561 251.525,331.907 252.667 C 332.059 253.171,332.250 253.846,332.331 254.167 C 332.475 254.738,332.537 254.970,333.049 256.833 C 333.188 257.337,333.383 257.959,333.482 258.214 C 333.581 258.469,333.648 258.732,333.631 258.797 C 333.613 258.863,333.692 259.217,333.806 259.583 C 333.920 259.950,334.081 260.512,334.163 260.833 C 334.246 261.154,334.511 262.069,334.752 262.867 C 334.994 263.664,335.332 264.864,335.505 265.533 C 335.678 266.203,335.975 267.275,336.166 267.917 C 336.357 268.558,336.733 269.908,337.002 270.917 C 337.270 271.925,337.613 273.162,337.764 273.667 C 337.914 274.171,338.255 275.371,338.522 276.333 C 338.788 277.296,339.196 278.758,339.427 279.583 C 339.658 280.408,339.912 281.346,339.991 281.667 C 340.070 281.987,340.258 282.662,340.409 283.167 C 340.560 283.671,340.752 284.346,340.835 284.667 C 340.918 284.987,341.185 285.962,341.429 286.833 C 341.673 287.704,342.043 289.054,342.253 289.833 C 342.463 290.612,342.800 291.850,343.004 292.583 C 343.207 293.317,343.394 294.078,343.420 294.276 C 343.446 294.474,343.545 294.886,343.641 295.193 C 343.821 295.772,344.175 297.257,344.508 298.833 C 344.615 299.337,344.801 300.200,344.922 300.750 C 345.283 302.383,345.817 305.372,346.232 308.083 C 347.334 315.274,347.148 322.698,345.755 327.083 C 345.638 327.450,345.444 328.076,345.323 328.475 C 345.202 328.874,344.854 329.661,344.550 330.225 C 344.245 330.789,343.951 331.381,343.896 331.542 C 343.840 331.702,343.728 331.833,343.647 331.833 C 343.566 331.833,343.499 331.927,343.498 332.042 C 343.491 332.703,339.535 336.500,338.853 336.500 C 338.750 336.500,338.667 336.560,338.667 336.633 C 338.667 336.705,338.160 337.013,337.542 337.316 C 336.923 337.619,336.229 337.959,336.000 338.071 C 335.771 338.183,335.246 338.373,334.833 338.493 C 334.421 338.612,333.783 338.808,333.417 338.928 C 330.335 339.934,325.751 340.374,318.083 340.397 C 312.085 340.415,310.468 340.317,307.167 339.734 C 306.387 339.597,305.300 339.408,304.750 339.316 C 302.413 338.923,298.421 337.799,295.750 336.782 C 295.475 336.677,295.175 336.578,295.083 336.562 C 293.785 336.336,284.924 331.710,284.694 331.138 C 284.664 331.062,284.565 331.000,284.475 331.000 C 284.332 331.000,283.230 330.247,283.000 329.993 C 282.954 329.942,282.654 329.720,282.333 329.500 C 282.012 329.280,281.712 329.054,281.667 328.999 C 281.621 328.944,281.040 328.464,280.375 327.931 C 279.710 327.398,279.167 326.896,279.167 326.815 C 279.167 326.733,279.081 326.667,278.977 326.667 C 278.663 326.667,273.833 321.634,273.833 321.306 C 273.833 321.230,273.777 321.165,273.708 321.163 C 273.640 321.161,273.321 320.788,273.000 320.333 C 272.679 319.879,272.360 319.506,272.292 319.504 C 272.223 319.502,272.167 319.394,272.167 319.264 C 272.167 319.134,272.108 319.003,272.035 318.972 C 271.963 318.942,271.540 318.354,271.094 317.667 C 270.649 316.979,270.033 316.041,269.725 315.582 C 269.418 315.123,269.167 314.654,269.167 314.540 C 269.167 314.426,269.092 314.333,269.000 314.333 C 268.908 314.333,268.833 314.253,268.833 314.155 C 268.833 314.056,268.627 313.625,268.376 313.196 C 268.124 312.768,267.916 312.379,267.913 312.333 C 267.910 312.287,267.640 311.688,267.313 311.000 C 266.600 309.500,266.286 308.778,266.008 308.000 C 265.894 307.679,265.734 307.267,265.654 307.083 C 265.203 306.048,264.914 305.100,264.206 302.333 C 263.187 298.352,262.883 296.361,262.727 292.639 L 262.618 290.029 262.017 290.107 C 261.687 290.150,260.629 290.326,259.667 290.500 C 258.704 290.673,257.279 290.896,256.500 290.996 C 255.721 291.095,254.558 291.246,253.917 291.330 C 253.275 291.414,251.887 291.595,250.833 291.733 C 249.779 291.871,247.979 292.107,246.833 292.258 C 245.688 292.409,244.675 292.510,244.583 292.482 C 244.492 292.455,243.704 292.519,242.833 292.625 C 241.963 292.731,240.275 292.895,239.083 292.990 C 237.892 293.085,235.567 293.274,233.917 293.410 C 222.814 294.329,215.779 294.568,199.917 294.568 C 184.318 294.567,176.805 294.311,166.083 293.416 C 164.525 293.286,162.237 293.098,161.000 292.999 C 159.762 292.899,158.037 292.731,157.167 292.625 C 156.296 292.519,155.477 292.454,155.347 292.480 C 155.217 292.506,154.242 292.408,153.180 292.261 C 152.119 292.114,150.350 291.879,149.250 291.738 C 148.150 291.597,146.725 291.413,146.083 291.329 C 145.442 291.245,144.279 291.096,143.500 290.996 C 142.721 290.897,141.483 290.698,140.750 290.554 C 138.356 290.085,137.501 290.024,137.494 290.322 C 137.438 292.673,136.788 298.660,136.509 299.393 C 136.412 299.647,136.333 300.080,136.333 300.355 C 136.333 300.630,136.257 300.998,136.163 301.173 C 136.070 301.348,135.921 301.849,135.832 302.287 C 135.591 303.478,135.066 305.300,134.665 306.333 C 134.469 306.837,134.175 307.625,134.011 308.084 C 133.847 308.542,133.353 309.667,132.912 310.584 C 132.472 311.500,132.098 312.287,132.082 312.333 C 132.022 312.507,131.472 313.598,131.282 313.920 C 131.173 314.105,130.865 314.630,130.598 315.087 C 130.331 315.543,130.067 315.954,130.013 316.000 C 129.958 316.046,129.766 316.365,129.586 316.708 C 129.405 317.052,129.195 317.333,129.119 317.333 C 129.043 317.333,129.023 317.402,129.075 317.486 C 129.126 317.570,129.112 317.663,129.043 317.694 C 128.973 317.725,128.617 318.190,128.250 318.729 C 127.883 319.267,127.425 319.879,127.231 320.088 C 127.037 320.297,126.711 320.703,126.507 320.991 C 125.652 322.191,121.322 326.641,120.008 327.669 C 119.599 327.989,119.131 328.381,118.966 328.542 C 118.801 328.702,118.592 328.833,118.500 328.833 C 118.408 328.833,118.333 328.891,118.333 328.961 C 118.333 329.122,115.747 331.000,115.526 331.000 C 115.435 331.000,115.336 331.061,115.306 331.135 C 115.145 331.526,109.200 334.818,107.000 335.735 C 105.690 336.281,105.091 336.511,104.811 336.577 C 104.661 336.612,104.398 336.712,104.227 336.800 C 103.119 337.369,97.732 338.875,95.250 339.309 C 94.700 339.405,93.612 339.596,92.833 339.733 C 86.475 340.849,74.762 340.653,68.250 339.321 C 66.010 338.863,61.672 337.166,61.294 336.600 C 61.227 336.499,61.171 336.479,61.169 336.556 C 61.167 336.701,59.791 335.679,59.694 335.460 C 59.664 335.390,59.569 335.333,59.484 335.333 C 59.131 335.333,56.852 332.793,56.194 331.667 C 54.980 329.588,53.729 326.237,53.578 324.660 C 53.556 324.427,53.440 323.789,53.320 323.243 C 53.172 322.564,53.101 320.801,53.097 317.667 C 53.091 312.334,53.261 310.464,54.264 304.833 C 54.403 304.054,54.592 302.967,54.684 302.417 C 54.777 301.867,54.955 301.004,55.081 300.500 C 55.207 299.996,55.400 299.133,55.511 298.583 C 55.847 296.909,56.772 293.160,57.257 291.500 C 57.378 291.087,57.566 290.412,57.675 290.000 C 57.783 289.587,57.971 288.912,58.091 288.500 C 58.212 288.087,58.399 287.412,58.508 287.000 C 58.711 286.230,58.935 285.437,59.403 283.833 C 59.550 283.329,59.790 282.467,59.937 281.917 C 60.084 281.367,60.422 280.129,60.688 279.167 C 60.955 278.204,61.355 276.742,61.578 275.917 C 61.801 275.092,62.181 273.742,62.422 272.917 C 62.663 272.092,62.916 271.148,62.986 270.820 C 63.055 270.493,63.157 270.150,63.214 270.059 C 63.270 269.968,63.351 269.711,63.394 269.488 C 63.437 269.266,63.600 268.633,63.756 268.083 C 63.912 267.533,64.217 266.446,64.433 265.667 C 64.649 264.887,64.934 263.875,65.065 263.417 C 65.295 262.615,65.531 261.766,66.097 259.708 C 66.241 259.181,66.387 258.617,66.421 258.454 C 66.455 258.291,66.665 257.541,66.889 256.787 C 67.367 255.176,67.477 254.783,67.669 254.000 C 67.748 253.679,67.970 252.892,68.163 252.250 C 68.356 251.608,68.732 250.258,69.000 249.250 C 69.268 248.242,69.644 246.892,69.837 246.250 C 70.030 245.608,70.253 244.821,70.333 244.500 C 70.511 243.784,70.710 243.054,71.084 241.750 C 71.242 241.200,71.589 239.963,71.855 239.000 C 72.696 235.963,73.137 234.376,73.582 232.790 C 73.819 231.943,74.081 230.987,74.162 230.667 C 74.360 229.892,74.570 229.127,74.919 227.917 C 75.077 227.367,75.383 226.279,75.600 225.500 C 76.314 222.927,76.463 222.424,76.739 221.667 C 76.888 221.254,77.125 220.579,77.264 220.167 C 77.403 219.754,77.584 219.267,77.666 219.083 C 78.078 218.162,78.485 217.167,78.756 216.417 C 78.922 215.958,79.110 215.508,79.174 215.417 C 79.238 215.325,79.384 214.950,79.500 214.583 C 79.615 214.217,79.806 213.729,79.923 213.500 C 80.041 213.271,80.249 212.821,80.387 212.500 C 81.805 209.191,85.998 200.949,86.492 200.500 C 86.543 200.454,86.696 200.192,86.833 199.917 C 86.971 199.642,87.129 199.379,87.185 199.333 C 87.241 199.287,87.403 199.024,87.544 198.748 C 87.773 198.301,88.405 197.342,90.564 194.167 C 91.295 193.092,91.966 192.214,92.375 191.797 C 92.535 191.634,92.667 191.431,92.667 191.347 C 92.667 191.263,92.723 191.169,92.792 191.139 C 92.860 191.108,93.367 190.521,93.917 189.835 C 95.088 188.372,99.474 183.926,100.917 182.739 C 101.467 182.287,101.954 181.878,102.000 181.831 C 102.265 181.559,105.741 179.133,106.277 178.846 C 106.629 178.657,107.292 178.277,107.750 178.001 C 108.565 177.511,109.324 177.136,110.833 176.478 C 111.246 176.298,111.796 176.042,112.055 175.909 C 112.315 175.775,112.634 175.667,112.766 175.667 C 112.897 175.667,113.135 175.595,113.294 175.507 C 113.971 175.132,117.650 174.202,119.833 173.853 C 121.129 173.646,132.677 173.633,134.990 173.836 M198.874 212.715 C 197.557 213.929,196.516 214.906,195.282 216.083 C 194.706 216.633,193.081 218.171,191.671 219.500 C 185.339 225.467,172.602 238.245,169.243 242.000 C 168.710 242.596,167.991 243.383,167.646 243.750 C 166.859 244.585,166.500 244.983,165.250 246.410 C 164.700 247.038,164.156 247.647,164.042 247.764 C 163.927 247.881,163.833 248.057,163.833 248.155 C 163.833 248.253,163.767 248.333,163.687 248.333 C 163.606 248.333,163.213 248.765,162.812 249.292 C 162.411 249.819,162.000 250.325,161.897 250.417 C 161.360 250.899,157.833 255.922,157.833 256.206 C 157.833 256.330,158.657 256.351,160.542 256.274 C 162.031 256.213,165.425 256.090,168.083 256.001 C 170.742 255.911,174.042 255.764,175.417 255.673 C 176.792 255.581,178.647 255.505,179.540 255.503 L 181.164 255.500 181.207 265.774 L 181.250 276.048 181.917 276.149 C 182.283 276.205,184.702 276.237,187.292 276.222 C 192.779 276.189,205.940 276.189,213.000 276.223 C 216.538 276.240,218.045 276.189,218.375 276.044 L 218.833 275.842 218.833 265.671 L 218.833 255.500 220.458 255.503 C 221.352 255.505,223.208 255.581,224.583 255.673 C 225.958 255.764,229.258 255.911,231.917 256.001 C 234.575 256.090,237.969 256.213,239.458 256.274 C 241.275 256.348,242.167 256.328,242.167 256.213 C 242.167 255.898,238.504 250.694,238.031 250.337 C 237.968 250.289,237.588 249.819,237.188 249.292 C 236.787 248.765,236.394 248.333,236.313 248.333 C 236.233 248.333,236.167 248.253,236.167 248.154 C 236.167 248.055,235.960 247.763,235.708 247.506 C 235.456 247.248,234.912 246.640,234.500 246.154 C 233.621 245.120,233.209 244.658,232.356 243.750 C 232.011 243.383,231.255 242.558,230.675 241.917 C 228.990 240.053,223.387 234.295,219.521 230.455 C 212.984 223.961,211.763 222.767,208.831 220.003 C 207.228 218.492,205.533 216.879,205.065 216.419 C 204.596 215.960,203.809 215.218,203.315 214.771 C 202.821 214.324,201.909 213.481,201.289 212.896 C 199.931 211.617,200.055 211.626,198.874 212.715 " stroke="none" fill="#2c2c4c" fill-rule="evenodd"></path><path id="path1" d="M108.698 20.624 C 109.862 20.653,111.812 20.653,113.032 20.625 C 114.252 20.596,113.300 20.573,110.917 20.573 C 108.533 20.573,107.535 20.596,108.698 20.624 M287.542 20.624 C 288.435 20.654,289.898 20.654,290.792 20.624 C 291.685 20.594,290.954 20.570,289.167 20.570 C 287.379 20.570,286.648 20.594,287.542 20.624 M81.958 21.124 C 82.715 21.155,83.952 21.155,84.708 21.124 C 85.465 21.093,84.846 21.068,83.333 21.068 C 81.821 21.068,81.202 21.093,81.958 21.124 M309.534 21.123 C 310.149 21.155,311.199 21.156,311.868 21.124 C 312.536 21.092,312.033 21.066,310.750 21.066 C 309.467 21.065,308.920 21.091,309.534 21.123 M31.717 169.000 C 31.717 169.504,31.748 169.710,31.786 169.458 C 31.824 169.206,31.824 168.794,31.786 168.542 C 31.748 168.290,31.717 168.496,31.717 169.000 M368.214 169.917 C 368.216 170.375,368.248 170.543,368.286 170.289 C 368.325 170.036,368.324 169.661,368.284 169.456 C 368.244 169.251,368.213 169.458,368.214 169.917 M195.458 276.122 C 195.848 276.157,196.485 276.157,196.875 276.122 C 197.265 276.087,196.946 276.058,196.167 276.058 C 195.387 276.058,195.069 276.087,195.458 276.122 M203.125 276.122 C 203.515 276.157,204.152 276.157,204.542 276.122 C 204.931 276.087,204.612 276.058,203.833 276.058 C 203.054 276.058,202.735 276.087,203.125 276.122 M154.627 292.451 C 154.834 292.491,155.134 292.490,155.294 292.448 C 155.453 292.406,155.283 292.374,154.917 292.375 C 154.550 292.377,154.420 292.411,154.627 292.451 M244.794 292.451 C 245.001 292.491,245.301 292.490,245.460 292.448 C 245.620 292.406,245.450 292.374,245.083 292.375 C 244.717 292.377,244.586 292.411,244.794 292.451 M53.539 309.167 C 53.539 309.487,53.573 309.619,53.615 309.458 C 53.657 309.298,53.657 309.035,53.615 308.875 C 53.573 308.715,53.539 308.846,53.539 309.167 M368.214 311.583 C 368.216 312.042,368.248 312.209,368.286 311.956 C 368.325 311.703,368.324 311.328,368.284 311.123 C 368.244 310.918,368.213 311.125,368.214 311.583 M31.714 312.583 C 31.716 313.042,31.748 313.209,31.786 312.956 C 31.825 312.703,31.824 312.328,31.784 312.123 C 31.744 311.918,31.713 312.125,31.714 312.583 M79.794 374.285 C 80.001 374.324,80.301 374.323,80.460 374.281 C 80.620 374.239,80.450 374.207,80.083 374.209 C 79.717 374.211,79.586 374.245,79.794 374.285 M319.542 374.282 C 319.702 374.323,319.965 374.323,320.125 374.282 C 320.285 374.240,320.154 374.205,319.833 374.205 C 319.512 374.205,319.381 374.240,319.542 374.282 M96.044 375.953 C 96.297 375.991,96.672 375.990,96.877 375.951 C 97.082 375.911,96.875 375.880,96.417 375.881 C 95.958 375.882,95.791 375.915,96.044 375.953 M303.127 375.951 C 303.334 375.991,303.634 375.990,303.794 375.948 C 303.953 375.906,303.783 375.874,303.417 375.875 C 303.050 375.877,302.920 375.911,303.127 375.951 M144.375 378.956 C 144.810 378.990,145.523 378.990,145.958 378.956 C 146.394 378.922,146.037 378.893,145.167 378.893 C 144.296 378.893,143.940 378.922,144.375 378.956 M254.047 378.956 C 254.485 378.990,255.160 378.990,255.547 378.955 C 255.934 378.920,255.575 378.892,254.750 378.892 C 253.925 378.893,253.609 378.922,254.047 378.956 M158.715 379.457 C 159.338 379.489,160.313 379.489,160.882 379.457 C 161.451 379.424,160.942 379.398,159.750 379.398 C 158.558 379.398,158.093 379.425,158.715 379.457 M239.049 379.457 C 239.671 379.489,240.646 379.489,241.215 379.457 C 241.784 379.424,241.275 379.398,240.083 379.398 C 238.892 379.398,238.426 379.425,239.049 379.457 " stroke="none" fill="#302c4c" fill-rule="evenodd"></path><path id="path2" d="M108.698 20.624 C 109.862 20.653,111.812 20.653,113.032 20.625 C 114.252 20.596,113.300 20.573,110.917 20.573 C 108.533 20.573,107.535 20.596,108.698 20.624 M287.542 20.624 C 288.435 20.654,289.898 20.654,290.792 20.624 C 291.685 20.594,290.954 20.570,289.167 20.570 C 287.379 20.570,286.648 20.594,287.542 20.624 M81.958 21.124 C 82.715 21.155,83.952 21.155,84.708 21.124 C 85.465 21.093,84.846 21.068,83.333 21.068 C 81.821 21.068,81.202 21.093,81.958 21.124 M309.534 21.123 C 310.149 21.155,311.199 21.156,311.868 21.124 C 312.536 21.092,312.033 21.066,310.750 21.066 C 309.467 21.065,308.920 21.091,309.534 21.123 M31.717 169.000 C 31.717 169.504,31.748 169.710,31.786 169.458 C 31.824 169.206,31.824 168.794,31.786 168.542 C 31.748 168.290,31.717 168.496,31.717 169.000 M368.214 169.917 C 368.216 170.375,368.248 170.543,368.286 170.289 C 368.325 170.036,368.324 169.661,368.284 169.456 C 368.244 169.251,368.213 169.458,368.214 169.917 M195.458 276.122 C 195.848 276.157,196.485 276.157,196.875 276.122 C 197.265 276.087,196.946 276.058,196.167 276.058 C 195.387 276.058,195.069 276.087,195.458 276.122 M203.125 276.122 C 203.515 276.157,204.152 276.157,204.542 276.122 C 204.931 276.087,204.612 276.058,203.833 276.058 C 203.054 276.058,202.735 276.087,203.125 276.122 M154.627 292.451 C 154.834 292.491,155.134 292.490,155.294 292.448 C 155.453 292.406,155.283 292.374,154.917 292.375 C 154.550 292.377,154.420 292.411,154.627 292.451 M244.794 292.451 C 245.001 292.491,245.301 292.490,245.460 292.448 C 245.620 292.406,245.450 292.374,245.083 292.375 C 244.717 292.377,244.586 292.411,244.794 292.451 M53.539 309.167 C 53.539 309.487,53.573 309.619,53.615 309.458 C 53.657 309.298,53.657 309.035,53.615 308.875 C 53.573 308.715,53.539 308.846,53.539 309.167 M368.214 311.583 C 368.216 312.042,368.248 312.209,368.286 311.956 C 368.325 311.703,368.324 311.328,368.284 311.123 C 368.244 310.918,368.213 311.125,368.214 311.583 M31.714 312.583 C 31.716 313.042,31.748 313.209,31.786 312.956 C 31.825 312.703,31.824 312.328,31.784 312.123 C 31.744 311.918,31.713 312.125,31.714 312.583 M79.794 374.285 C 80.001 374.324,80.301 374.323,80.460 374.281 C 80.620 374.239,80.450 374.207,80.083 374.209 C 79.717 374.211,79.586 374.245,79.794 374.285 M319.542 374.282 C 319.702 374.323,319.965 374.323,320.125 374.282 C 320.285 374.240,320.154 374.205,319.833 374.205 C 319.512 374.205,319.381 374.240,319.542 374.282 M96.044 375.953 C 96.297 375.991,96.672 375.990,96.877 375.951 C 97.082 375.911,96.875 375.880,96.417 375.881 C 95.958 375.882,95.791 375.915,96.044 375.953 M303.127 375.951 C 303.334 375.991,303.634 375.990,303.794 375.948 C 303.953 375.906,303.783 375.874,303.417 375.875 C 303.050 375.877,302.920 375.911,303.127 375.951 M144.375 378.956 C 144.810 378.990,145.523 378.990,145.958 378.956 C 146.394 378.922,146.037 378.893,145.167 378.893 C 144.296 378.893,143.940 378.922,144.375 378.956 M254.047 378.956 C 254.485 378.990,255.160 378.990,255.547 378.955 C 255.934 378.920,255.575 378.892,254.750 378.892 C 253.925 378.893,253.609 378.922,254.047 378.956 M158.715 379.457 C 159.338 379.489,160.313 379.489,160.882 379.457 C 161.451 379.424,160.942 379.398,159.750 379.398 C 158.558 379.398,158.093 379.425,158.715 379.457 M239.049 379.457 C 239.671 379.489,240.646 379.489,241.215 379.457 C 241.784 379.424,241.275 379.398,240.083 379.398 C 238.892 379.398,238.426 379.425,239.049 379.457 " stroke="none" fill="#302c4c" fill-rule="evenodd"></path><path id="path3" d="M108.698 20.624 C 109.862 20.653,111.812 20.653,113.032 20.625 C 114.252 20.596,113.300 20.573,110.917 20.573 C 108.533 20.573,107.535 20.596,108.698 20.624 M287.542 20.624 C 288.435 20.654,289.898 20.654,290.792 20.624 C 291.685 20.594,290.954 20.570,289.167 20.570 C 287.379 20.570,286.648 20.594,287.542 20.624 M81.958 21.124 C 82.715 21.155,83.952 21.155,84.708 21.124 C 85.465 21.093,84.846 21.068,83.333 21.068 C 81.821 21.068,81.202 21.093,81.958 21.124 M309.534 21.123 C 310.149 21.155,311.199 21.156,311.868 21.124 C 312.536 21.092,312.033 21.066,310.750 21.066 C 309.467 21.065,308.920 21.091,309.534 21.123 M31.717 169.000 C 31.717 169.504,31.748 169.710,31.786 169.458 C 31.824 169.206,31.824 168.794,31.786 168.542 C 31.748 168.290,31.717 168.496,31.717 169.000 M368.214 169.917 C 368.216 170.375,368.248 170.543,368.286 170.289 C 368.325 170.036,368.324 169.661,368.284 169.456 C 368.244 169.251,368.213 169.458,368.214 169.917 M195.458 276.122 C 195.848 276.157,196.485 276.157,196.875 276.122 C 197.265 276.087,196.946 276.058,196.167 276.058 C 195.387 276.058,195.069 276.087,195.458 276.122 M203.125 276.122 C 203.515 276.157,204.152 276.157,204.542 276.122 C 204.931 276.087,204.612 276.058,203.833 276.058 C 203.054 276.058,202.735 276.087,203.125 276.122 M154.627 292.451 C 154.834 292.491,155.134 292.490,155.294 292.448 C 155.453 292.406,155.283 292.374,154.917 292.375 C 154.550 292.377,154.420 292.411,154.627 292.451 M244.794 292.451 C 245.001 292.491,245.301 292.490,245.460 292.448 C 245.620 292.406,245.450 292.374,245.083 292.375 C 244.717 292.377,244.586 292.411,244.794 292.451 M53.539 309.167 C 53.539 309.487,53.573 309.619,53.615 309.458 C 53.657 309.298,53.657 309.035,53.615 308.875 C 53.573 308.715,53.539 308.846,53.539 309.167 M368.214 311.583 C 368.216 312.042,368.248 312.209,368.286 311.956 C 368.325 311.703,368.324 311.328,368.284 311.123 C 368.244 310.918,368.213 311.125,368.214 311.583 M31.714 312.583 C 31.716 313.042,31.748 313.209,31.786 312.956 C 31.825 312.703,31.824 312.328,31.784 312.123 C 31.744 311.918,31.713 312.125,31.714 312.583 M79.794 374.285 C 80.001 374.324,80.301 374.323,80.460 374.281 C 80.620 374.239,80.450 374.207,80.083 374.209 C 79.717 374.211,79.586 374.245,79.794 374.285 M319.542 374.282 C 319.702 374.323,319.965 374.323,320.125 374.282 C 320.285 374.240,320.154 374.205,319.833 374.205 C 319.512 374.205,319.381 374.240,319.542 374.282 M96.044 375.953 C 96.297 375.991,96.672 375.990,96.877 375.951 C 97.082 375.911,96.875 375.880,96.417 375.881 C 95.958 375.882,95.791 375.915,96.044 375.953 M303.127 375.951 C 303.334 375.991,303.634 375.990,303.794 375.948 C 303.953 375.906,303.783 375.874,303.417 375.875 C 303.050 375.877,302.920 375.911,303.127 375.951 M144.375 378.956 C 144.810 378.990,145.523 378.990,145.958 378.956 C 146.394 378.922,146.037 378.893,145.167 378.893 C 144.296 378.893,143.940 378.922,144.375 378.956 M254.047 378.956 C 254.485 378.990,255.160 378.990,255.547 378.955 C 255.934 378.920,255.575 378.892,254.750 378.892 C 253.925 378.893,253.609 378.922,254.047 378.956 M158.715 379.457 C 159.338 379.489,160.313 379.489,160.882 379.457 C 161.451 379.424,160.942 379.398,159.750 379.398 C 158.558 379.398,158.093 379.425,158.715 379.457 M239.049 379.457 C 239.671 379.489,240.646 379.489,241.215 379.457 C 241.784 379.424,241.275 379.398,240.083 379.398 C 238.892 379.398,238.426 379.425,239.049 379.457 " stroke="none" fill="#302c4c" fill-rule="evenodd"></path><path id="path4" d="M108.698 20.624 C 109.862 20.653,111.812 20.653,113.032 20.625 C 114.252 20.596,113.300 20.573,110.917 20.573 C 108.533 20.573,107.535 20.596,108.698 20.624 M287.542 20.624 C 288.435 20.654,289.898 20.654,290.792 20.624 C 291.685 20.594,290.954 20.570,289.167 20.570 C 287.379 20.570,286.648 20.594,287.542 20.624 M81.958 21.124 C 82.715 21.155,83.952 21.155,84.708 21.124 C 85.465 21.093,84.846 21.068,83.333 21.068 C 81.821 21.068,81.202 21.093,81.958 21.124 M309.534 21.123 C 310.149 21.155,311.199 21.156,311.868 21.124 C 312.536 21.092,312.033 21.066,310.750 21.066 C 309.467 21.065,308.920 21.091,309.534 21.123 M31.717 169.000 C 31.717 169.504,31.748 169.710,31.786 169.458 C 31.824 169.206,31.824 168.794,31.786 168.542 C 31.748 168.290,31.717 168.496,31.717 169.000 M368.214 169.917 C 368.216 170.375,368.248 170.543,368.286 170.289 C 368.325 170.036,368.324 169.661,368.284 169.456 C 368.244 169.251,368.213 169.458,368.214 169.917 M195.458 276.122 C 195.848 276.157,196.485 276.157,196.875 276.122 C 197.265 276.087,196.946 276.058,196.167 276.058 C 195.387 276.058,195.069 276.087,195.458 276.122 M203.125 276.122 C 203.515 276.157,204.152 276.157,204.542 276.122 C 204.931 276.087,204.612 276.058,203.833 276.058 C 203.054 276.058,202.735 276.087,203.125 276.122 M154.627 292.451 C 154.834 292.491,155.134 292.490,155.294 292.448 C 155.453 292.406,155.283 292.374,154.917 292.375 C 154.550 292.377,154.420 292.411,154.627 292.451 M244.794 292.451 C 245.001 292.491,245.301 292.490,245.460 292.448 C 245.620 292.406,245.450 292.374,245.083 292.375 C 244.717 292.377,244.586 292.411,244.794 292.451 M53.539 309.167 C 53.539 309.487,53.573 309.619,53.615 309.458 C 53.657 309.298,53.657 309.035,53.615 308.875 C 53.573 308.715,53.539 308.846,53.539 309.167 M368.214 311.583 C 368.216 312.042,368.248 312.209,368.286 311.956 C 368.325 311.703,368.324 311.328,368.284 311.123 C 368.244 310.918,368.213 311.125,368.214 311.583 M31.714 312.583 C 31.716 313.042,31.748 313.209,31.786 312.956 C 31.825 312.703,31.824 312.328,31.784 312.123 C 31.744 311.918,31.713 312.125,31.714 312.583 M79.794 374.285 C 80.001 374.324,80.301 374.323,80.460 374.281 C 80.620 374.239,80.450 374.207,80.083 374.209 C 79.717 374.211,79.586 374.245,79.794 374.285 M319.542 374.282 C 319.702 374.323,319.965 374.323,320.125 374.282 C 320.285 374.240,320.154 374.205,319.833 374.205 C 319.512 374.205,319.381 374.240,319.542 374.282 M96.044 375.953 C 96.297 375.991,96.672 375.990,96.877 375.951 C 97.082 375.911,96.875 375.880,96.417 375.881 C 95.958 375.882,95.791 375.915,96.044 375.953 M303.127 375.951 C 303.334 375.991,303.634 375.990,303.794 375.948 C 303.953 375.906,303.783 375.874,303.417 375.875 C 303.050 375.877,302.920 375.911,303.127 375.951 M144.375 378.956 C 144.810 378.990,145.523 378.990,145.958 378.956 C 146.394 378.922,146.037 378.893,145.167 378.893 C 144.296 378.893,143.940 378.922,144.375 378.956 M254.047 378.956 C 254.485 378.990,255.160 378.990,255.547 378.955 C 255.934 378.920,255.575 378.892,254.750 378.892 C 253.925 378.893,253.609 378.922,254.047 378.956 M158.715 379.457 C 159.338 379.489,160.313 379.489,160.882 379.457 C 161.451 379.424,160.942 379.398,159.750 379.398 C 158.558 379.398,158.093 379.425,158.715 379.457 M239.049 379.457 C 239.671 379.489,240.646 379.489,241.215 379.457 C 241.784 379.424,241.275 379.398,240.083 379.398 C 238.892 379.398,238.426 379.425,239.049 379.457 " stroke="none" fill="#302c4c" fill-rule="evenodd"></path></g></svg>