<?xml version="1" encoding="UTF-8"?>
<svg version="1.1" viewBox="0 0 400 400" xmlns="http://www.w3.org/2000/svg">
<g fill-rule="evenodd">
<path d="m149.8 20.2c-18.3 0.1-37.9 0.4-53 0.7-4.6 0.1-11.8 0.2-16 0.3-21 0.4-28.6 0.8-29.3 1.4-0.2 0.2-0.3 0.2-0.3 0.1-1e-3 -0.1-0.1-0.1-0.1 0-0.1 0.1-0.5 0.4-1 0.7-0.5 0.3-1 0.6-1.1 0.7-0.1 0.1-0.4 0.3-0.7 0.5s-0.6 0.5-0.9 0.6-0.4 0.3-0.5 0.4c-0.1 0-0.7 0.4-1.2 1-0.2 0.2-0.4 0.3-0.5 0.3-0.1 0-0.2 0.1-0.2 0.1 0 0.1-0.3 0.3-0.6 0.6-0.3 0.2-0.9 0.6-1.1 0.9-0.3 0.3-0.9 0.8-1.3 1.1-0.4 0.4-1 0.9-1.3 1.1s-0.5 0.5-0.6 0.5c-0.1 0-0.2 0.1-0.2 0.1s-0.7 0.8-1.6 1.6c-1.9 1.7-10.1 9.8-12.4 12.3-1.6 1.8-2 2.2-3.1 3.4-0.4 0.4-1.2 1.4-1.9 2.1-0.7 0.8-1.3 1.5-1.3 1.50 0-0.5 0.6-1.1 1.2-0.6 0.6-1.1 1.2-1.1 1.2-0.1 0-0.1 0.2-0.1 0.3s-0.1 0.2-0.1 0.2c-0.1 0-0.5 0.5-1 1-1.1 1.4-1.3 1.6-1.6 1.9-0.1 0.1-0.5 0.6-0.8 0.9s-0.6 0.7-0.7 0.8c-0.1 0.1-0.4 0.5-0.7 0.8-0.3 0.4-0.6 0.7-0.7 0.8s-0.5 0.6-0.8 1.1c-0.4 0.5-0.7 1-0.8 1-0.1 0-0.4 0.5-0.7 0.9-0.3 0.5-0.7 0.9-0.8 1.1-0.1 0.1-0.5 0.7-0.9 1.2-0.4 0.5-0.7 1-0.8 1.1s-0.2 0.3-0.2 0.4-0.1 0.2-0.1 0.2c-0.2 0.1-1.5 2.1-1.5 2.3 0 0.1-0.1 0.2-0.1 0.2-0.1 0-0.2 0.2-0.4 0.5s-0.3 0.6-0.4 0.7c-0.6 0.6-3 5.2-3.8 7.3l-0.5 1.3v11.2c-0 11.70 11.3 0.7 15.1 0.1 0.7 0.4 1.8 0.6 2.4s0.4 1.3 0.4 1.5c0.1 0.6 0.9 2.5 1.5 3.8 0.3 0.7 0.6 1.3 0.7 1.4 0.2 0.4 1.8 3.4 1.9 3.5 0.2 0.1 0.5 0.7 0.6 1 0.1 0.2 0.2 0.3 0.2 0.3s0.1 0.1 0.1 0.2c0 0.2 1.5 2.3 1.7 2.3 0.1 0 0.1 0.1 0 0.2s0 0.2 0.2 0.3c0.1 0.1 0.3 0.2 0.3 0.3s0.1 0.2 0.1 0.3c0.1 0 0.6 0.6 1.1 1.2 0.8 1 1.8 2 4.4 4.5 0.3 0.3 1 0.9 1.6 1.3s1.1 0.8 1.2 0.9c0.3 0.3 2.4 1.7 2.6 1.7 0.1 0 0.2 0.1 0.2 0.1s0.2 0.2 0.4 0.3c0.2 0.1 0.8 0.4 1.2 0.7 1.9 1.1 6.4 3.2 6.9 3.2 0.1 0 0.4 0.1 0.7 0.2 0.9 0.4 2.2 0.7 3.4 0.9 0.6 0.1 1.5 0.3 2 0.4 3.2 0.6 10 0.1 14.2-1 0.6-0.2 1.6-0.4 2.1-0.6s1.1-0.4 1.4-0.5c0.3-0.1 1.1-0.5 1.8-0.8 2-0.8 3.2-1.4 3.2-1.5 0-0.1 0.1-0.1 0.2-0.1 0.2 0 3.8-2.1 4-2.3 0-0.1 0.4-0.3 0.8-0.5 0.4-0.2 0.8-0.5 0.9-0.7 0.1-0.1 0.7-0.6 1.4-1.1 1.2-0.9 3.8-3.5 5.1-5 0.4-0.5 0.9-1 1-1.2 0.2-0.2 0.3-0.4 0.3-0.5s0.1-0.2 0.1-0.2 0.3-0.2 0.4-0.5c0.2-0.3 0.4-0.6 0.5-0.7 0.2-0.2 1.4-2.2 2.1-3.4 1.7-3 3-6.2 3.9-9.4 0.3-1.1 0.4-1.8 0.9-4.3 0.3-1.8 0.4-1.8 0.6 0.7 0.3 2.3 2 8.2 2.9 9.9 0.1 0.2 0.2 0.4 0.1 0.40 0 0.1 0.4 0.4 0.8s0.6 1 0.7 1.3c0.3 0.6 0.3 0.6 1.3 2.3 0.4 0.7 0.8 1.4 0.9 1.4 0.1 0 0.3 0.3 0.4 0.6 0.2 0.3 0.4 0.5 0.4 0.5s0.1 0.1 0.1 0.2c5e-3 0.6 4.2 5.1 6.2 6.8 0.6 0.5 1 0.9 1.1 0.9 0.1 0.2 3.1 2.3 3.3 2.3 0.1 0 0.4 0.2 0.6 0.4 0.4 0.3 1.9 1.1 3.5 2 0.8 0.4 2.1 1 2.4 1 0.1 0 0.3 0.1 0.4 0.2s0.3 0.2 0.5 0.2c0.2 0 0.4 0.1 0.5 0.1 0.3 0.3 4.8 1.6 6.5 1.8 6.9 1.2 13.2 0.7 19.5-1.3 0.9-0.3 1.3-0.4 2.5-0.9 0.3-0.1 0.7-0.3 0.9-0.4 0.8-0.3 2.6-1.2 3.4-1.7 0.5-0.3 1.2-0.7 1.5-0.9 0.4-0.2 0.7-0.4 0.7-0.5s0.1-0.2 0.3-0.2c0.2-0.1 0.4-0.2 0.6-0.4 0.2-0.2 0.6-0.5 0.9-0.7 0.3-0.2 0.7-0.5 0.9-0.7 0.2-0.2 0.8-0.7 1.4-1.2 1.5-1.3 2.8-2.6 4.7-4.8 1.6-1.9 4-5.6 5.1-8 0.3-0.6 0.6-1.3 0.7-1.4 0.1-0.1 0.2-0.4 0.3-0.5 0.1-0.1 0.2-0.4 0.2-0.6 0.7-1.8 1.8-5.4 2.1-7.1 0.6-3.2 0.7-3.8 0.7-4.4 0-0.8 0.1-0.7 0.3 1.2 0.4 2.9 0.9 4.9 1.6 6.9 0.5 1.4 1.1 3 1.4 3.4 0.1 0.3 0.2 0.5 0.2 0.5-0.1 0 1.7 3.5 1.9 3.7 0.1 0 0.1 0.2 0.2 0.3 0.4 0.9 3.3 4.9 4 5.5 0.2 0.1 0.3 0.3 0.3 0.4 0 0.1 4 4.1 4.1 4.1 0 0 0.3 0.2 0.6 0.5 0.3 0.3 1 0.8 1.5 1.2 0.5 0.4 1.3 1 1.7 1.2s1.1 0.7 1.5 1c0.4 0.2 0.8 0.5 0.9 0.6 0.2 0.3 4.8 2.6 5.4 2.7 0.1 0 0.3 0.1 0.6 0.3 0.7 0.4 4.3 1.5 5.5 1.8 0.6 0.1 1.5 0.3 2.1 0.4 4.7 1 10.3 1 15 0.1 0.5-0.1 1.1-0.2 1.3-0.2 0.8-0.1 4.4-1.1 5.6-1.6 0.3-0.1 0.7-0.3 0.8-0.3 1.8-0.7 2.7-1.1 2.9-1.2 0.1-0.1 0.6-0.4 1.1-0.6 0.9-0.4 4.1-2.3 4.2-2.5 0-0.1 0.4-0.3 0.7-0.5 0.3-0.2 0.7-0.5 0.8-0.6 0.1-0.1 0.7-0.5 1.2-0.9 3.7-2.7 8.8-9 11-13.5 0.3-0.6 0.6-1.2 0.7-1.3 0.1-0.1 0.1-0.2 0.1-0.2-0.1 00-0.1 0-0.2 0.2-0.3 1.3-3 1.8-4.5 0.5-1.4 1-3.8 1.3-5.7 0.2-1.6 0.4-1.6 0.6 0.2 0.2 1.6 0.4 2.7 0.8 4 0.5 1.8 1.1 3.8 1.3 4.3 0.1 0.3 0.5 1.2 0.8 2.1 0.3 0.9 0.7 1.7 0.8 1.8s0.4 0.7 0.7 1.2 0.5 1 0.6 1.1c0.1 0 0.2 0.3 0.4 0.7 0.2 0.3 0.5 0.8 0.7 1.1 0.2 0.3 0.4 0.6 0.4 0.6 0 0.1 0.2 0.4 0.7 0.9 0.2 0.2 0.3 0.4 0.3 0.5s0.1 0.2 0.1 0.2c0.1 0 0.3 0.3 0.6 0.6 0.8 1.1 1.2 1.5 3.1 3.5 2.1 2.1 3.1 3 3.3 3 0.1 0 0.2 0.1 0.2 0.2 0 0.1 0.8 0.7 1.7 1.3 0.9 0.6 1.7 1.2 1.8 1.3 0.6 0.4 5.4 2.9 5.4 2.8 00 0.2 0 0.5 0.2 0.5 0.2 2 0.8 3.6 1.3 6.7 2.1 17 2.1 22.50 0.2-0.1 0.7-0.2 1.1-0.3 0.4-0.1 1-0.3 1.3-0.4 0.8-0.3 1.6-0.7 2-0.9 1.7-0.7 5-2.5 6.4-3.5 0.4-0.3 0.9-0.6 1-0.6s0.2-0.1 0.2-0.2 0.2-0.3 0.5-0.4 0.7-0.4 0.9-0.7 0.5-0.4 0.5-0.4c0.3 0 4.3-3.9 5.4-5.3 0.4-0.5 0.7-0.9 0.8-0.9 00 0.4-0.5 0.7-1s0.7-1 0.7-1c0.2-0.2 1.2-1.6 1.2-1.8 0-0.1 0.1-0.3 0.3-0.6 0.4-0.5 1.2-2.1 1.8-3.3 0.2-0.5 0.5-1 0.6-1.1 0.7-1.3 2.3-6.3 2.6-8.3 0.1-0.6 0.3-1.8 0.5-2.7l0.3-1.6 0.2 1.5c0.3 1.8 0.6 3.5 0.9 4.7 0.1 0.5 0.4 1.2 0.5 1.7 0.5 1.8 2.8 7.2 3.3 7.6 0.1 0.1 0.4 0.6 0.9 1.4 0.2 0.4 0.4 0.7 0.5 0.8 0.1 0 0.4 0.6 0.8 1.2s0.9 1.3 1.1 1.5 0.5 0.6 0.6 0.8c0.6 0.9 4 4.5 4.2 4.5 0 0 0.3 0.2 0.6 0.5s0.8 0.8 1.2 1c0.4 0.3 0.7 0.6 0.9 0.7 0.1 0.1 0.4 0.3 0.7 0.5s1 0.7 1.6 1.1c0.6 0.4 1.1 0.8 1.2 0.8 0.1 0 0.4 0.2 0.8 0.5 0.4 0.3 1.2 0.7 1.7 0.9s1.1 0.6 1.2 0.7c0.2 0.2 1.8 0.8 4 1.7 1 0.4 3.2 1 4.2 1.3 0.5 0.1 1.4 0.3 1.9 0.4 2.3 0.5 5.5 0.8 8.1 0.7 2.4-0.1 3.2-0.2 5.5-0.7 0.5-0.1 1-0.2 1.1-0.2 0.40 3.8-1.1 4.7-1.5 0.7-0.3 2.1-0.9 2.8-1.3 1.9-0.9 5.2-2.9 6.5-4.1 0.2-0.2 0.5-0.4 0.6-0.4s0.2-0.1 0.2-0.1c0-0.1 0.4-0.4 0.9-0.8 1.7-1.3 5.7-5.4 7.3-7.5 0.5-0.7 1-1.3 1.1-1.3 0.10 0.1-0.2 0.1-0.3 0-0.1 0.1-0.2 0.1-0.3 0.2-0.1 2-3.1 2-3.3 0-0.1 0.1-0.2 0.2-0.2 0.1 0 0.2-0.2 0.3-0.5s0.3-0.7 0.5-1c0.4-0.7 1.5-3.1 1.5-3.3 0-0.1 0.1-0.3 0.2-0.6 0.2-0.5 0.5-1.3 1.4-4 0.1-0.4 0.3-1.1 0.4-1.7 0.1-0.6 0.3-1.6 0.4-2.3 0.2-1.1 0.3-3.2 0.3-12.8v-11.6l-0.5-1.3c-0.5-1.3-0.9-2.3-1.9-4-0.2-0.4-0.4-0.8-0.5-0.8-0.10-0.2-0.3-0.3-0.5-0.1-0.2-0.4-0.7-0.6-1.1-0.2-0.4-0.5-0.9-0.7-1.2-0.2-0.3-0.5-0.8-0.8-1.1-0.3-0.3-0.5-0.7-0.5-0.8 0-0.1-0.1-0.2-0.1-0.2s-0.2-0.2-0.3-0.4c-0.2-0.3-4.6-6.6-4.9-6.8-0.10-0.4-0.4-0.7-0.8-0.3-0.4-0.6-0.8-0.7-0.8-0.10-0.1-0.2-0.1-0.3s-0.1-0.2-0.1-0.3c-0.10-0.5-0.6-1-1.2s-0.9-1.2-1-1.2c-0.10-0.7-0.8-1.3-1.6-0.7-0.8-1.3-1.6-1.4-1.7s-0.4-0.5-0.8-0.9c-0.3-0.4-0.8-0.9-1-1.2-0.3-0.3-0.5-0.5-0.5-0.5 0-0.1-1.5-1.7-2.2-2.5-0.3-0.3-0.5-0.5-0.5-0.5s-0.3-0.3-0.6-0.7c-0.3-0.4-1.3-1.4-2-2.2-3.5-3.8-10.6-11-13.7-13.6-0.5-0.4-1-0.9-1.2-1.1-0.1-0.1-0.5-0.5-0.8-0.7-0.8-0.6-2.6-2.3-2.7-2.400-0.4-0.3-0.8-0.7-0.4-0.3-0.8-0.6-0.8-0.70-0.1-0.4-0.4-0.8-0.7-0.4-0.3-0.8-0.6-0.8-0.70-0.1-0.1-0.1-0.3-0.1-0.1 0-0.4-0.2-0.6-0.4-0.5-0.5-1.5-1.1-1.7-1.1-0.1 0-0.2-0.1-0.2-0.1-0.1-0.2-1.5-1.2-1.7-1.1-0.1 0-0.3-0.1-0.5-0.3-0.4-0.4-4.1-0.6-16.9-0.9-3.3-0.1-8.4-0.2-11.4-0.3-3-0.1-6-0.2-6.8-0.2-0.7 4e-3 -5.5-0.1-10.6-0.2-31.6-0.8-89.4-1.1-153.1-0.7m8.4 110.1c-2e-3 0.2-0.1 0.5-0.3 0.7-0.2 0.2-0.3 0.5-0.3 0.6-6e-3 0.1-0.2 0.4-0.5 0.7-0.3 0.3-0.5 0.7-0.5 0.8 0 0.1-0.1 0.2-0.1 0.3-0.1 0-0.4 0.4-0.7 0.9s-0.6 0.9-0.7 1c-0.1 0.1-0.4 0.5-0.7 0.8-0.4 0.5-2.6 2.9-4 4.3-0.5 0.5-2.8 2.5-3.3 3-0.3 0.2-0.5 0.4-0.6 0.50 0.1-0.1 0.1-0.2 0.1-0.2 0-0.4 0.2-1 0.7-0.2 0.2-0.4 0.3-0.4 0.3s-0.4 0.2-0.7 0.4c-0.3 0.2-0.6 0.4-0.7 0.4-0.1 0-0.2 0.1-0.2 0.1s-0.3 0.3-0.6 0.5c-0.3 0.2-0.9 0.5-1.2 0.7-0.3 0.2-1 0.6-1.6 0.9-0.6 0.3-1.1 0.6-1.3 0.7-0.4 0.2-2.1 0.9-2.8 1.2-0.4 0.1-0.7 0.3-0.8 0.3-0.1 0.1-0.6 0.3-1.1 0.4-8.6 3.1-18.1 3.6-26.9 1.3-1.1-0.3-2.5-0.7-3-0.9-0.3-0.1-0.5-0.2-0.6-0.2s-0.3-0.1-0.7-0.2c-4-1.6-5.9-2.5-9.4-4.6-0.6-0.3-3.5-2.4-3.6-2.60-0.1-0.5-0.4-0.9-0.8-1.9-1.5-4.4-4-5.8-5.7-1.1-1.4-3.3-4.3-3.3-4.5 0-0.2-1.4-2.3-1.5-2.3-0.1 0-0.4 0.4-0.7 0.9-0.4 0.8-1.8 2.6-3.3 4.4-0.4 0.5-6.2 6.3-6.8 6.7-0.2 0.2-0.7 0.6-1.1 0.8s-0.9 0.7-1.1 0.9-0.5 0.4-0.5 0.4-0.2 0.1-0.3 0.2c-0.2 0.2-3.1 2.1-3.6 2.3-0.5 0.2-1 0.5-1.2 0.8-0.1 0.1-0.3 0.2-0.3 0.1 0-0.1-0.4 0.1-0.8 0.4-0.5 0.3-0.9 0.5-0.9 0.50 0-0.5 0.2-1 0.4-0.5 0.2-1.1 0.5-1.4 0.6s-0.6 0.3-0.9 0.4c-0.3 0.1-0.6 0.2-0.8 0.2-0.2 0-0.4 0.1-0.5 0.2-0.3 0.3-5.9 1.8-8.3 2.1-4 0.6-7.6 0.7-9.2 0.3-0.6-0.2-1.3-0.4-1.7-0.4-0.8-0.2-0.8-0.2-0.8 0.6 0 0.4-0.1 1.4-0.2 2.3-0.3 2.4-1 11.8-1 12.4 0 0.2-0.1 2-0.2 3.8-1.2 17.5-1.4 28-1.5 72.20 32.5 6e-3 36.5 0.6 50.6 0.2 5.1 0.6 11.5 0.9 15.6 0.1 1.6 0.3 3.8 0.4 5.1 0.1 1.2 0.3 3.3 0.4 4.5 0.1 1.2 0.3 3 0.4 3.9 0.1 0.9 0.3 2.4 0.4 3.2 0.1 0.9 0.3 2.3 0.4 3.1s0.3 2.1 0.4 2.8c0.1 0.7 0.3 1.8 0.4 2.5 0.2 1.4 0.7 3.9 1.3 6.9 0.1 0.4 0.2 0.9 0.2 1.1 0 0.2 0.2 0.9 0.3 1.4s0.3 1.3 0.4 1.7c0.2 0.9 0.9 3.7 1.2 4.4 0.1 0.3 0.3 0.8 0.4 1.2 0.1 0.3 0.3 0.9 0.4 1.2 0.8 2.8 3 7.8 4.4 10.2 0.8 1.4 2 3.1 2.1 3.1 0.1 0 0.1 0.1 0.1 0.2s0.1 0.3 0.1 0.3c0.1 0 0.5 0.5 0.9 1 0.8 0.9 0.8 0.9 2.2 1.2 0.8 0.2 1.9 0.4 2.4 0.5 1.5 0.4 3.5 0.8 6.5 1.2 0.5 0.1 1.6 0.3 2.4 0.4 3.3 0.6 4.5 0.8 5.7 0.9 0.7 0.1 2 0.3 2.8 0.4 4.7 0.7 7.1 1 11.1 1.4 0.7 0.1 1.9 0.2 2.7 0.3 3 0.4 7.3 0.8 11.7 1.2 1.2 0.1 3.6 0.3 5.2 0.5 1.7 0.2 4.3 0.4 5.8 0.5s4.1 0.3 5.8 0.4c1.7 0.1 4.4 0.3 6.1 0.4 1.6 0.1 4.8 0.3 6.9 0.4 7.4 0.5 29.3 1.4 36.6 1.5 2.3 0 6.6 0.2 9.5 0.3 7.1 0.2 53.3 0.2 60.2-2e-3 2.8-0.1 7.3-0.2 9.8-0.3 2.60 7-0.2 9.9-0.3 2.9-0.1 5.8-0.2 6.4-0.2s2.8-0.1 4.8-0.2c2-0.1 5.3-0.3 7.3-0.3 2-0.1 5.4-0.3 7.6-0.4s5.3-0.3 7.1-0.4c1.7-0.1 4.5-0.3 6.2-0.4 1.6-0.1 4.2-0.3 5.7-0.4 1.5-0.1 4.1-0.3 5.8-0.5 1.7-0.2 3.3-0.3 3.5-0.3s1.1-0.1 2-0.2c0.9-0.1 2.5-0.2 3.6-0.4s2.7-0.3 3.5-0.4c0.8-0.1 2.1-0.2 2.9-0.3 0.8-0.1 2.1-0.2 2.9-0.3 0.8-0.1 2.1-0.3 2.8-0.3 0.7-0.1 2-0.2 2.9-0.3s2.3-0.3 3.2-0.4c0.9-0.1 2.4-0.4 3.4-0.5 3.7-0.5 4.2-0.6 5.7-0.9 0.8-0.1 2-0.4 2.7-0.5 0.6-0.1 1.3-0.2 1.4-0.2 0.1 8e-3 0.6-0.1 1-0.2 0.4-0.1 1.3-0.3 2-0.4 0.7-0.1 1.7-0.3 2.2-0.4 0.6-0.1 1.6-0.3 2.3-0.5s1.6-0.3 2-0.4c0.4-0.1 0.9-0.2 1.2-0.2 0.5-0.1 1.1-0.6 2-1.7 0.6-0.8 1.9-2.5 1.9-2.6 00 0.4-0.7 0.8-1.4 1.1-1.8 3-5.8 3-6.3 0-0.1 0.1-0.3 0.2-0.4 0.2-0.2 0.9-2.2 1.2-3.2 0.1-0.3 0.3-0.8 0.4-1.2 0.5-1.3 1.4-4.7 1.9-6.9 0.2-0.7 0.4-1.6 0.5-1.9 0.1-0.3 0.2-1 0.4-1.6s0.3-1.6 0.5-2.2c0.5-2.5 0.7-3.6 0.9-4.7 0.1-0.6 0.3-1.8 0.4-2.6s0.3-2.1 0.4-2.8c0.1-0.7 0.3-2.2 0.4-3.2 1.1-8.1 2.2-22.3 2.6-33.8 0.5-13.4 0.5-22.3 0.4-54.3-0.1-43.2-0.3-51.1-1.4-65.4-0.1-1.9-0.2-3.5-0.2-3.6 0.1-0.2-0.3-4.4-0.6-8.2-0.1-1.4-0.3-3.6-0.4-4.8-0.3-4.1-0.2-3.7-1.1-3.5-2.4 0.6-3 0.7-4.6 0.7-40-9-0.8-12.6-2-0.7-0.2-1.4-0.4-1.4-0.40-3e-3 -0.3-0.1-0.7-0.2-2.4-0.9-2.3-0.9-3.6-1.4-0.6-0.2-1.1-0.5-1.2-0.6-0.3-0.2-1.4-0.7-1.5-0.70 8e-3 -0.2-0.1-0.3-0.2s-0.4-0.3-0.5-0.3-0.2-0.1-0.2-0.2c0-0.1-0.2-0.2-0.4-0.3-0.2-0.1-0.4-0.2-0.4-0.2s-0.1-0.2-0.3-0.2c-0.6-0.2-4.4-2.9-5.6-3.9-0.3-0.2-0.9-0.8-1.3-1.2-1-0.9-5.1-5.1-6-6.2-0.6-0.7-2.5-3.3-3-4.2-0.6-1-0.7-1-1.5 0.3-0.6 1.1-1.9 3-2.1 3.2-0.1 0-0.2 0.3-0.4 0.6-0.5 0.8-2.6 3.2-2.8 3.2-0.1 0-0.1 0.1-0.1 0.2 0 0.3-3.6 3.6-4.5 4.3-0.2 0.1-0.5 0.3-0.5 0.4-0.1 0.2-2.1 1.6-3 2.2-1.1 0.8-1.6 1-2.4 1.5-0.5 0.3-1 0.5-1 0.6-0.3 0.4-7 3.3-7.2 3.100-0.2 0-0.4 0.2-0.8 0.4-5.1 1.5-7.4 1.8-5.1 0.7-9.1 0.7-14.2 0-1.7-0.3-4.5-0.9-5.7-1.2-0.4-0.1-1.2-0.4-1.8-0.6s-1.5-0.5-1.8-0.7c-0.4-0.2-1.2-0.5-1.8-0.8-1.3-0.5-4.9-2.3-5.2-2.6-0.3-0.3-0.9-0.6-1.2-0.7-0.2-0.1-0.3-0.2-0.3-0.3s-0.1-0.1-0.2-0.1c-0.3 0-3.5-2.4-4.4-3.2-0.2-0.2-0.3-0.3-0.4-0.3s-0.2-0.1-0.4-0.3c-0.2-0.2-0.6-0.6-1-1-1.1-1-4.2-4.2-4.7-5-0.3-0.4-0.6-0.7-0.7-0.8-0.1-0.1-0.6-0.9-1.2-1.7s-1-1.5-1.1-1.6c-0.10-0.3-0.5-0.6-1-0.6-1.1-0.7-1.1-1-0.5-0.4 0.7-1.7 2.8-1.9 2.8-0.1 0-0.1 0.2-0.1 0.3s-0.1 0.2-0.1 0.2-0.3 0.3-0.4 0.6c-0.2 0.3-0.4 0.6-0.5 0.6-0.1 0-0.1 0.1-0.1 0.2 0 0.1-0.1 0.3-0.3 0.5-1.8 2.1-2.6 3-3.7 4.1-1.7 1.6-2.5 2.3-3.4 3.1-0.4 0.3-0.8 0.7-0.8 0.70 0.1-0.2 0.1-0.3 0.1-0.1 0-0.2 0.1-0.3 0.10 0.1-1.5 1.3-2.4 1.8-0.2 0.1-0.6 0.4-0.9 0.6-0.3 0.2-0.7 0.4-0.8 0.5-0.1 0.1-0.6 0.3-1.1 0.6-1.2 0.7-4.5 2.3-4.7 2.3-0.1 0-0.3 0.1-0.5 0.1-1.2 0.6-2.7 1.2-3.7 1.4-0.5 0.1-1.1 0.3-1.3 0.4-0.2 0.1-0.9 0.3-1.6 0.4-0.6 0.1-1.5 0.3-1.9 0.4-3.4 0.8-11.7 1.2-15.9 0.7-3-0.3-4.3-0.5-5.2-0.8-0.5-0.1-1.4-0.3-2.1-0.5-0.6-0.1-1.3-0.3-1.5-0.4-0.2-0.1-0.7-0.2-1.1-0.3-0.8-0.2-1.7-0.5-2.6-0.9-0.3-0.1-0.7-0.3-0.9-0.4-1.1-0.4-2.7-1.2-3.4-1.6-0.4-0.2-0.8-0.4-0.9-0.40 0-0.20-0.3-0.2s-0.3-0.3-0.3-0.3c-0.2 0-2.8-1.6-3.2-1.9-0.2-0.1-0.4-0.2-0.5-0.2-0.1 0-0.2-0.1-0.2-0.1s-0.2-0.3-0.5-0.4c-0.3-0.2-0.6-0.4-0.7-0.5-0.1-0.1-0.7-0.5-1.2-0.9s-1.2-0.9-1.4-1.2-0.4-0.4-0.4-0.3c-1e-3 0.3-5.1-5-5.8-6.1-0.2-0.3-0.5-0.6-0.5-0.6-0.1-1e-3 -0.1-0.1-0.1-0.3 0-0.1-0.1-0.2-0.1-0.2s-0.3-0.2-0.4-0.5-0.4-0.6-0.4-0.6c-0.2-0.2-0.8-1.2-0.8-1.3 0-0.1-0.1-0.2-0.2-0.2-0.1 0-0.2-0.1-0.2-0.1 0-0.2-1.1-1.8-1.2-1.8-0.1-2e-3 -0.1 0.1-0.1 0.3m-23.2 43.5c5.2 0.5 12.2 2.3 14.5 3.8 0.2 0.1 0.7 0.4 1.1 0.6 0.7 0.3 3 1.7 3.3 2 0.1 0.1 0.8 0.6 1.5 1.1 0.7 0.5 1.4 1 1.4 1 0 0.1 0.4 0.4 0.8 0.7 1.1 0.9 1.3 1.1 4.2 3.9l2.7 2.6 2-0.2c1.1-0.1 3.2-0.3 4.7-0.4 1.5-0.1 4.2-0.3 6-0.4 12.1-0.9 33.4-0.9 45.5 0 1.8 0.1 4.5 0.3 6 0.4s3.6 0.3 4.6 0.4l2 0.3 2.5-2.5c1.4-1.4 2.7-2.6 2.8-2.8 0.1-0.2 0.3-0.3 0.4-0.3 0.1 0 0.3-0.2 0.6-0.4 0.3-0.2 1-0.8 1.7-1.4 0.7-0.5 1.3-1 1.5-1.2 0.1-0.1 0.2-0.2 0.2-0.1 1e-3 0.1 0.1 0.1 0.10 0.2-0.2 2.3-1.6 3.5-2.3 2.9-1.6 6-2.9 8.4-3.4 0.5-0.1 1.2-0.3 1.8-0.4 5.4-1.3 19.1-1.6 23.9-0.4 1.7 0.4 4.9 1.4 5.4 1.6 0.2 0.1 0.6 0.3 1 0.5 1.3 0.6 2.2 1 2.8 1.3 0.3 0.2 0.9 0.5 1.5 0.9 0.9 0.5 4.2 2.8 4.7 3.3 0.1 0.1 0.5 0.4 0.8 0.7 0.9 0.7 6.3 6.2 7.3 7.4 0.5 0.6 0.9 1.1 1 1.1 0.1 0 0.1 0.1 0.1 0.2s0.1 0.3 0.3 0.5c0.4 0.4 1.1 1.3 1.8 2.4 1.9 2.8 3.1 4.6 3.2 4.9 0.1 0.2 0.2 0.3 0.2 0.3 0.1 0 0.2 0.3 0.4 0.6 0.1 0.3 0.3 0.6 0.3 0.6 0.1 0 0.2 0.2 0.3 0.5s0.3 0.7 0.5 1c0.3 0.5 1.2 2.1 2.5 4.8 0.2 0.5 0.8 1.5 1.2 2.4 0.4 0.9 1 2.1 1.3 2.7 0.3 0.6 0.5 1.2 0.5 1.4s0.1 0.3 0.2 0.4c0.1 0.1 0.3 0.3 0.3 0.4s0.5 1.3 1 2.7 1 2.6 1.1 2.8c0.1 0.4 0.5 1.4 0.6 1.6 0.1 0.1 0.2 0.6 0.4 1.2 0.2 0.6 0.4 1.3 0.5 1.7 0.1 0.4 0.3 1 0.4 1.5 0.2 0.7 0.3 1.2 0.9 3 0.1 0.3 0.2 0.7 0.2 0.8 0 0.2 0.2 0.7 0.3 1.3 0.3 1.1 0.8 2.7 1.6 5.6 0.3 1 0.7 2.5 0.9 3.3s0.5 1.8 0.6 2.2c0.1 0.3 0.3 1 0.4 1.5 0.2 0.5 0.3 1.2 0.4 1.5 0.1 0.3 0.3 1.1 0.5 1.8 0.2 0.6 0.4 1.3 0.4 1.5 0.1 0.4 1 3.6 1.3 4.8 0.2 0.5 0.3 1.2 0.4 1.5 0.1 0.6 0.2 0.8 0.7 2.7 0.1 0.5 0.3 1.1 0.4 1.4s0.2 0.5 0.1 0.6c0 0.1 0.1 0.4 0.2 0.8 0.1 0.4 0.3 0.9 0.4 1.2 0.1 0.3 0.3 1.2 0.6 2 0.2 0.8 0.6 2 0.8 2.7 0.2 0.7 0.5 1.7 0.7 2.4 0.2 0.6 0.6 2 0.8 3 0.3 1 0.6 2.2 0.8 2.8 0.1 0.5 0.5 1.7 0.8 2.7 0.3 1 0.7 2.4 0.9 3.2s0.5 1.8 0.6 2.1c0.1 0.3 0.3 1 0.4 1.5 0.2 0.5 0.3 1.2 0.4 1.5 0.1 0.3 0.3 1.3 0.6 2.2s0.6 2.2 0.8 3 0.5 2 0.8 2.8c0.2 0.7 0.4 1.5 0.4 1.7s0.1 0.6 0.2 0.9c0.2 0.6 0.5 2.1 0.9 3.6 0.1 0.5 0.3 1.4 0.4 1.9 0.4 1.6 0.9 4.6 1.3 7.3 1.1 7.2 0.9 14.6-0.5 19-0.1 0.4-0.3 1-0.4 1.4s-0.5 1.2-0.8 1.8c-0.3 0.6-0.6 1.2-0.7 1.3-0.1 0.2-0.2 0.3-0.2 0.3s-0.1 0.1-0.1 0.2c-7e-3 0.7-4 4.5-4.6 4.5-0.1 0-0.2 0.1-0.2 0.1 0 0.1-0.5 0.4-1.1 0.7-0.6 0.3-1.3 0.6-1.5 0.8s-0.8 0.3-1.2 0.4c-0.4 0.1-1.1 0.3-1.4 0.4-3.1 1-7.7 1.4-15.3 1.5-6 0-7.6-0.1-10.9-0.7-0.8-0.1-1.9-0.3-2.4-0.4-2.3-0.4-6.3-1.5-9-2.5-0.3-0.1-0.6-0.2-0.7-0.2-1.3-0.2-10.2-4.9-10.4-5.40-0.1-0.1-0.1-0.2-0.1-0.1 0-1.2-0.8-1.5-10-0.1-0.3-0.3-0.7-0.5s-0.6-0.4-0.7-0.5c0-0.1-0.6-0.5-1.3-1.1s-1.2-1-1.2-1.1c0-0.1-0.1-0.1-0.2-0.1-0.3 0-5.1-5-5.1-5.4 0-0.1-0.1-0.1-0.1-0.1-0.1-2e-3 -0.4-0.4-0.7-0.8-0.3-0.5-0.6-0.8-0.7-0.8-0.1-2e-3 -0.1-0.1-0.1-0.2s-0.1-0.3-0.1-0.3c-0.10-0.5-0.6-0.9-1.3-0.4-0.7-1.1-1.6-1.4-2.1-0.3-0.5-0.6-0.9-0.6-1s-0.1-0.2-0.2-0.2-0.2-0.1-0.2-0.2c0-0.1-0.2-0.5-0.5-1-0.3-0.4-0.5-0.8-0.5-0.9s-0.3-0.6-0.6-1.3c-0.7-1.5-1-2.2-1.3-3-0.1-0.3-0.3-0.7-0.4-0.9-0.5-1-0.7-2-1.4-4.8-1-4-1.3-6-1.5-9.7l-0.1-2.6-0.6 0.1c-0.3 0-1.4 0.2-2.4 0.4-1 0.2-2.4 0.4-3.2 0.5-0.8 0.1-1.9 0.2-2.6 0.3-0.6 0.1-2 0.3-3.1 0.4s-2.9 0.4-4 0.5c-1.1 0.2-2.2 0.3-2.2 0.2-0.10-0.9 0-1.8 0.1-0.9 0.1-2.6 0.3-3.8 0.4-1.2 0.1-3.5 0.3-5.2 0.4-11.1 0.9-18.1 1.2-34 1.2-15.6-1e-3 -23.1-0.3-33.8-1.2-1.6-0.1-3.8-0.3-5.1-0.4-1.2-0.1-3-0.3-3.8-0.4-0.9-0.1-1.7-0.2-1.8-0.1s-1.1-0.1-2.2-0.2c-1.1-0.1-2.8-0.4-3.9-0.5s-2.5-0.3-3.2-0.4c-0.6-0.1-1.8-0.2-2.6-0.3-0.8-0.1-2-0.3-2.8-0.4-2.4-0.5-3.2-0.5-3.3-0.2-0.1 2.4-0.7 8.3-1 9.1-0.1 0.3-0.2 0.7-0.2 1s-0.1 0.6-0.2 0.8c-0.1 0.2-0.2 0.7-0.3 1.1-0.2 1.2-0.8 3-1.2 4-0.2 0.5-0.5 1.3-0.7 1.8-0.2 0.5-0.7 1.6-1.1 2.5-0.4 0.9-0.8 1.7-0.8 1.7-0.1 0.2-0.6 1.3-0.8 1.6-0.1 0.2-0.4 0.7-0.7 1.2-0.3 0.5-0.5 0.9-0.6 0.9-0.1 0-0.2 0.4-0.4 0.7-0.2 0.3-0.4 0.6-0.5 0.6s-0.1 0.10 0.2c0.1 0.1 0 0.20 0.2-0.1 0-0.4 0.5-0.8 1-0.4 0.5-0.8 1.1-1 1.4s-0.5 0.6-0.7 0.9c-0.9 1.2-5.2 5.7-6.5 6.7-0.4 0.3-0.9 0.7-1 0.9-0.2 0.2-0.4 0.3-0.5 0.3s-0.2 0.1-0.2 0.1c0 0.2-2.6 2-2.8 2-0.1 0-0.2 0.1-0.2 0.1-0.2 0.4-6.1 3.7-8.3 4.6-1.3 0.5-1.9 0.8-2.2 0.8-0.1 0-0.4 0.1-0.6 0.2-1.1 0.6-6.5 2.1-9 2.5-0.6 0.1-1.6 0.3-2.4 0.4-6.4 1.1-18.1 0.9-24.6-0.4-2.2-0.5-6.6-2.2-7-2.7-0.1-0.1-0.1-0.1-0.10-2e-3 0.1-1.4-0.9-1.5-1.10-0.1-0.1-0.1-0.2-0.1-0.4 0-2.6-2.5-3.3-3.7-1.2-2.1-2.5-5.4-2.6-70-0.2-0.1-0.9-0.3-1.4-0.1-0.7-0.2-2.4-0.2-5.6-6e-3 -5.3 0.2-7.2 1.2-12.8 0.1-0.8 0.3-1.9 0.4-2.4 0.1-0.6 0.3-1.4 0.4-1.9s0.3-1.4 0.4-1.9c0.3-1.7 1.3-5.4 1.7-7.1 0.1-0.4 0.3-1.1 0.4-1.5 0.1-0.4 0.3-1.1 0.4-1.5 0.1-0.4 0.3-1.1 0.4-1.5 0.2-0.8 0.4-1.6 0.9-3.2 0.1-0.5 0.4-1.4 0.5-1.9s0.5-1.8 0.8-2.8c0.3-1 0.7-2.4 0.9-3.2s0.6-2.2 0.8-3 0.5-1.8 0.6-2.1c0.1-0.3 0.2-0.7 0.2-0.8 0.1-0.1 0.1-0.3 0.2-0.6 0-0.2 0.2-0.9 0.4-1.4s0.5-1.6 0.7-2.4c0.2-0.8 0.5-1.8 0.6-2.2 0.2-0.8 0.5-1.7 1-3.7 0.1-0.5 0.3-1.1 0.3-1.3s0.2-0.9 0.5-1.7c0.5-1.6 0.6-2 0.8-2.8 0.1-0.3 0.3-1.1 0.5-1.8s0.6-2 0.8-3 0.6-2.4 0.8-3 0.4-1.4 0.5-1.8c0.2-0.7 0.4-1.4 0.8-2.8 0.2-0.6 0.5-1.8 0.8-2.8 0.8-3 1.3-4.6 1.7-6.2 0.2-0.8 0.5-1.8 0.6-2.1 0.2-0.8 0.4-1.5 0.8-2.8 0.2-0.6 0.5-1.6 0.7-2.4 0.7-2.6 0.9-3.1 1.1-3.8 0.1-0.4 0.4-1.1 0.5-1.5 0.1-0.4 0.3-0.9 0.4-1.1 0.4-0.9 0.8-1.9 1.1-2.7 0.2-0.5 0.4-0.9 0.4-1 0.1-0.1 0.2-0.5 0.3-0.8 0.1-0.4 0.3-0.9 0.4-1.1 0.1-0.2 0.3-0.7 0.5-1 1.4-3.3 5.6-11.6 6.1-12 0.10 0.2-0.3 0.3-0.6 0.1-0.3 0.3-0.5 0.4-0.6s0.2-0.3 0.4-0.6c0.2-0.4 0.9-1.4 3-4.6 0.7-1.1 1.4-2 1.8-2.4 0.2-0.2 0.3-0.4 0.3-0.5s0.1-0.2 0.1-0.2c0.10 0.6-0.6 1.1-1.3 1.2-1.5 5.6-5.9 7-7.1 0.6-0.5 1-0.9 1.1-0.9 0.3-0.3 3.7-2.7 4.3-3 0.4-0.2 1-0.6 1.5-0.8 0.8-0.5 1.6-0.9 3.1-1.5 0.4-0.2 1-0.4 1.2-0.6 0.3-0.1 0.6-0.2 0.7-0.2 0.1 0 0.4-0.1 0.5-0.2 0.7-0.4 4.4-1.3 6.5-1.7 1.3-0.2 12.8-0.2 15.20m63.9 38.9c-1.3 1.2-2.4 2.2-3.6 3.4-0.6 0.6-2.2 2.1-3.6 3.4-6.3 6-19.1 18.7-22.4 22.5-0.5 0.6-1.3 1.4-1.6 1.8-0.8 0.8-1.1 1.2-2.4 2.7-0.6 0.6-1.1 1.2-1.2 1.4-0.1 0.1-0.2 0.3-0.2 0.4s-0.1 0.2-0.1 0.2c-0.1 0-0.5 0.4-0.9 1s-0.8 1-0.9 1.1c-0.5 0.5-4.1 5.5-4.1 5.8 0 0.1 0.8 0.1 2.7 0.1 1.5-0.1 4.9-0.2 7.5-0.3 2.7-0.1 6-0.2 7.3-0.3 1.4-0.1 3.2-0.2 4.1-0.2l1.6-3e-3 0.1 20.5 0.7 0.1c0.4 0.1 2.8 0.1 5.4 0.1 5.50 18.60 25.7 1e-3 3.5 0 50 5.4-0.2l0.5-0.2v-10.2-10.2l1.6 3e-3c0.9 2e-3 2.8 0.1 4.1 0.2 1.4 0.1 4.7 0.2 7.3 0.3 2.7 0.1 6.1 0.2 7.5 0.3 1.8 0.1 2.7 0.1 2.7-0.1 0-0.3-3.7-5.5-4.1-5.9-0.10-0.4-0.5-0.8-1-0.4-0.5-0.8-1-0.9-1-0.1 0-0.1-0.1-0.1-0.2s-0.2-0.4-0.5-0.6c-0.3-0.3-0.8-0.9-1.2-1.4-0.9-1-1.3-1.5-2.1-2.4-0.3-0.4-1.1-1.2-1.7-1.8-1.7-1.9-7.3-7.6-11.2-11.5-6.5-6.5-7.8-7.7-10.7-10.5-1.6-1.5-3.3-3.1-3.8-3.6-0.5-0.5-1.3-1.2-1.8-1.6s-1.4-1.3-2-1.9c-1.4-1.3-1.2-1.3-2.4-0.2" fill="#2c2c4c"/>
<path d="m108.7 20.6c1.2 0 3.1 0 4.3 1e-3 1.20 0.3-0.1-2.1-0.1-2.4 0-3.4 0-2.2 0.1m178.8 0c0.9 0 2.4 0 3.2 0 0.90 0.2-0.1-1.6-0.1-1.8 0-2.5 0-1.6 0.1m-205.6 0.5c0.8 0 2 0 2.8 0 0.80 0.1-0.1-1.4-0.1-1.5 0-2.1 0-1.4 0.1m227.6-1e-3c0.6 0 1.7 0 2.3 1e-3 0.70 0.2-0.1-1.1-0.1-1.3-1e-3 -1.8 0-1.2 0.1m-277.8 147.9c0 0.5 0 0.7 0.1 0.5s0-0.7 0-0.9-0.10-0.1 0.5m336.5 0.9c2e-3 0.5 0 0.6 0.1 0.4 0-0.3 0-0.6-2e-3 -0.8s-0.1 2e-3 -0.1 0.5m-172.8 106.2c0.4 0 1 0 1.4 0s0.1-0.1-0.7-0.1c-0.8 0-1.1 0-0.7 0.1m7.7 0c0.4 0 1 0 1.4 0 0.40 0.1-0.1-0.7-0.1s-1.1 0-0.7 0.1m-48.5 16.3c0.2 0 0.5 0 0.7-3e-3 0.200-0.1-0.4-0.1-0.4 2e-3 -0.5 0-0.3 0.1m90.2 0c0.2 0 0.5 0 0.7-3e-3 0.200-0.1-0.4-0.1-0.4 2e-3 -0.5 0-0.3 0.1m-191.3 16.7c0 0.3 0 0.5 0.1 0.3 0-0.2 0-0.4 0-0.6s-0.10-0.1 0.3m314.7 2.4c2e-3 0.5 0 0.6 0.1 0.4 0-0.3 0-0.6-2e-3 -0.8s-0.1 2e-3 -0.1 0.5m-336.5 1c2e-3 0.5 0 0.6 0.1 0.4 0-0.3 0-0.6-2e-3 -0.8s-0.1 2e-3 -0.1 0.5m48.1 61.7c0.2 0 0.5 0 0.7-4e-3 0.200-0.1-0.4-0.1-0.4 2e-3 -0.5 0-0.3 0.1m239.8-3e-3c0.2 0 0.4 0 0.6 0 0.20 0-0.1-0.3-0.1s-0.5 0-0.3 0.1m-223.5 1.7c0.3 0 0.6 0 0.8-2e-3 0.20-2e-3 -0.1-0.5-0.1-0.5 1e-3 -0.6 0-0.4 0.1m207.1-2e-3c0.2 0 0.5 0 0.7-3e-3 0.200-0.1-0.4-0.1-0.4 2e-3 -0.5 0-0.3 0.1m-158.8 3c0.4 0 1.1 0 1.6 0 0.40 0.1-0.1-0.8-0.1-0.9 0-1.2 0-0.8 0.1m109.7 0c0.4 0 1.1 0 1.5-1e-3s0-0.1-0.8-0.1c-0.8 1e-3 -1.1 0-0.7 0.1m-95.3 0.5c0.6 0 1.6 0 2.2 0 0.60 0.1-0.1-1.1-0.1s-1.7 0-1 0.1m80.3 0c0.6 0 1.6 0 2.2 0 0.60 0.1-0.1-1.1-0.1-1.2 0-1.7 0-1 0.1" fill="#302c4c"/>
<path d="m108.7 20.6c1.2 0 3.1 0 4.3 1e-3 1.20 0.3-0.1-2.1-0.1-2.4 0-3.4 0-2.2 0.1m178.8 0c0.9 0 2.4 0 3.2 0 0.90 0.2-0.1-1.6-0.1-1.8 0-2.5 0-1.6 0.1m-205.6 0.5c0.8 0 2 0 2.8 0 0.80 0.1-0.1-1.4-0.1-1.5 0-2.1 0-1.4 0.1m227.6-1e-3c0.6 0 1.7 0 2.3 1e-3 0.70 0.2-0.1-1.1-0.1-1.3-1e-3 -1.8 0-1.2 0.1m-277.8 147.9c0 0.5 0 0.7 0.1 0.5s0-0.7 0-0.9-0.10-0.1 0.5m336.5 0.9c2e-3 0.5 0 0.6 0.1 0.4 0-0.3 0-0.6-2e-3 -0.8s-0.1 2e-3 -0.1 0.5m-172.8 106.2c0.4 0 1 0 1.4 0s0.1-0.1-0.7-0.1c-0.8 0-1.1 0-0.7 0.1m7.7 0c0.4 0 1 0 1.4 0 0.40 0.1-0.1-0.7-0.1s-1.1 0-0.7 0.1m-48.5 16.3c0.2 0 0.5 0 0.7-3e-3 0.200-0.1-0.4-0.1-0.4 2e-3 -0.5 0-0.3 0.1m90.2 0c0.2 0 0.5 0 0.7-3e-3 0.200-0.1-0.4-0.1-0.4 2e-3 -0.5 0-0.3 0.1m-191.3 16.7c0 0.3 0 0.5 0.1 0.3 0-0.2 0-0.4 0-0.6s-0.10-0.1 0.3m314.7 2.4c2e-3 0.5 0 0.6 0.1 0.4 0-0.3 0-0.6-2e-3 -0.8s-0.1 2e-3 -0.1 0.5m-336.5 1c2e-3 0.5 0 0.6 0.1 0.4 0-0.3 0-0.6-2e-3 -0.8s-0.1 2e-3 -0.1 0.5m48.1 61.7c0.2 0 0.5 0 0.7-4e-3 0.200-0.1-0.4-0.1-0.4 2e-3 -0.5 0-0.3 0.1m239.8-3e-3c0.2 0 0.4 0 0.6 0 0.20 0-0.1-0.3-0.1s-0.5 0-0.3 0.1m-223.5 1.7c0.3 0 0.6 0 0.8-2e-3 0.20-2e-3 -0.1-0.5-0.1-0.5 1e-3 -0.6 0-0.4 0.1m207.1-2e-3c0.2 0 0.5 0 0.7-3e-3 0.200-0.1-0.4-0.1-0.4 2e-3 -0.5 0-0.3 0.1m-158.8 3c0.4 0 1.1 0 1.6 0 0.40 0.1-0.1-0.8-0.1-0.9 0-1.2 0-0.8 0.1m109.7 0c0.4 0 1.1 0 1.5-1e-3s0-0.1-0.8-0.1c-0.8 1e-3 -1.1 0-0.7 0.1m-95.3 0.5c0.6 0 1.6 0 2.2 0 0.60 0.1-0.1-1.1-0.1s-1.7 0-1 0.1m80.3 0c0.6 0 1.6 0 2.2 0 0.60 0.1-0.1-1.1-0.1-1.2 0-1.7 0-1 0.1" fill="#302c4c"/>
<path d="m108.7 20.6c1.2 0 3.1 0 4.3 1e-3 1.20 0.3-0.1-2.1-0.1-2.4 0-3.4 0-2.2 0.1m178.8 0c0.9 0 2.4 0 3.2 0 0.90 0.2-0.1-1.6-0.1-1.8 0-2.5 0-1.6 0.1m-205.6 0.5c0.8 0 2 0 2.8 0 0.80 0.1-0.1-1.4-0.1-1.5 0-2.1 0-1.4 0.1m227.6-1e-3c0.6 0 1.7 0 2.3 1e-3 0.70 0.2-0.1-1.1-0.1-1.3-1e-3 -1.8 0-1.2 0.1m-277.8 147.9c0 0.5 0 0.7 0.1 0.5s0-0.7 0-0.9-0.10-0.1 0.5m336.5 0.9c2e-3 0.5 0 0.6 0.1 0.4 0-0.3 0-0.6-2e-3 -0.8s-0.1 2e-3 -0.1 0.5m-172.8 106.2c0.4 0 1 0 1.4 0s0.1-0.1-0.7-0.1c-0.8 0-1.1 0-0.7 0.1m7.7 0c0.4 0 1 0 1.4 0 0.40 0.1-0.1-0.7-0.1s-1.1 0-0.7 0.1m-48.5 16.3c0.2 0 0.5 0 0.7-3e-3 0.200-0.1-0.4-0.1-0.4 2e-3 -0.5 0-0.3 0.1m90.2 0c0.2 0 0.5 0 0.7-3e-3 0.200-0.1-0.4-0.1-0.4 2e-3 -0.5 0-0.3 0.1m-191.3 16.7c0 0.3 0 0.5 0.1 0.3 0-0.2 0-0.4 0-0.6s-0.10-0.1 0.3m314.7 2.4c2e-3 0.5 0 0.6 0.1 0.4 0-0.3 0-0.6-2e-3 -0.8s-0.1 2e-3 -0.1 0.5m-336.5 1c2e-3 0.5 0 0.6 0.1 0.4 0-0.3 0-0.6-2e-3 -0.8s-0.1 2e-3 -0.1 0.5m48.1 61.7c0.2 0 0.5 0 0.7-4e-3 0.200-0.1-0.4-0.1-0.4 2e-3 -0.5 0-0.3 0.1m239.8-3e-3c0.2 0 0.4 0 0.6 0 0.20 0-0.1-0.3-0.1s-0.5 0-0.3 0.1m-223.5 1.7c0.3 0 0.6 0 0.8-2e-3 0.20-2e-3 -0.1-0.5-0.1-0.5 1e-3 -0.6 0-0.4 0.1m207.1-2e-3c0.2 0 0.5 0 0.7-3e-3 0.200-0.1-0.4-0.1-0.4 2e-3 -0.5 0-0.3 0.1m-158.8 3c0.4 0 1.1 0 1.6 0 0.40 0.1-0.1-0.8-0.1-0.9 0-1.2 0-0.8 0.1m109.7 0c0.4 0 1.1 0 1.5-1e-3s0-0.1-0.8-0.1c-0.8 1e-3 -1.1 0-0.7 0.1m-95.3 0.5c0.6 0 1.6 0 2.2 0 0.60 0.1-0.1-1.1-0.1s-1.7 0-1 0.1m80.3 0c0.6 0 1.6 0 2.2 0 0.60 0.1-0.1-1.1-0.1-1.2 0-1.7 0-1 0.1" fill="#302c4c"/>
<path d="m108.7 20.6c1.2 0 3.1 0 4.3 1e-3 1.20 0.3-0.1-2.1-0.1-2.4 0-3.4 0-2.2 0.1m178.8 0c0.9 0 2.4 0 3.2 0 0.90 0.2-0.1-1.6-0.1-1.8 0-2.5 0-1.6 0.1m-205.6 0.5c0.8 0 2 0 2.8 0 0.80 0.1-0.1-1.4-0.1-1.5 0-2.1 0-1.4 0.1m227.6-1e-3c0.6 0 1.7 0 2.3 1e-3 0.70 0.2-0.1-1.1-0.1-1.3-1e-3 -1.8 0-1.2 0.1m-277.8 147.9c0 0.5 0 0.7 0.1 0.5s0-0.7 0-0.9-0.10-0.1 0.5m336.5 0.9c2e-3 0.5 0 0.6 0.1 0.4 0-0.3 0-0.6-2e-3 -0.8s-0.1 2e-3 -0.1 0.5m-172.8 106.2c0.4 0 1 0 1.4 0s0.1-0.1-0.7-0.1c-0.8 0-1.1 0-0.7 0.1m7.7 0c0.4 0 1 0 1.4 0 0.40 0.1-0.1-0.7-0.1s-1.1 0-0.7 0.1m-48.5 16.3c0.2 0 0.5 0 0.7-3e-3 0.200-0.1-0.4-0.1-0.4 2e-3 -0.5 0-0.3 0.1m90.2 0c0.2 0 0.5 0 0.7-3e-3 0.200-0.1-0.4-0.1-0.4 2e-3 -0.5 0-0.3 0.1m-191.3 16.7c0 0.3 0 0.5 0.1 0.3 0-0.2 0-0.4 0-0.6s-0.10-0.1 0.3m314.7 2.4c2e-3 0.5 0 0.6 0.1 0.4 0-0.3 0-0.6-2e-3 -0.8s-0.1 2e-3 -0.1 0.5m-336.5 1c2e-3 0.5 0 0.6 0.1 0.4 0-0.3 0-0.6-2e-3 -0.8s-0.1 2e-3 -0.1 0.5m48.1 61.7c0.2 0 0.5 0 0.7-4e-3 0.200-0.1-0.4-0.1-0.4 2e-3 -0.5 0-0.3 0.1m239.8-3e-3c0.2 0 0.4 0 0.6 0 0.20 0-0.1-0.3-0.1s-0.5 0-0.3 0.1m-223.5 1.7c0.3 0 0.6 0 0.8-2e-3 0.20-2e-3 -0.1-0.5-0.1-0.5 1e-3 -0.6 0-0.4 0.1m207.1-2e-3c0.2 0 0.5 0 0.7-3e-3 0.200-0.1-0.4-0.1-0.4 2e-3 -0.5 0-0.3 0.1m-158.8 3c0.4 0 1.1 0 1.6 0 0.40 0.1-0.1-0.8-0.1-0.9 0-1.2 0-0.8 0.1m109.7 0c0.4 0 1.1 0 1.5-1e-3s0-0.1-0.8-0.1c-0.8 1e-3 -1.1 0-0.7 0.1m-95.3 0.5c0.6 0 1.6 0 2.2 0 0.60 0.1-0.1-1.1-0.1s-1.7 0-1 0.1m80.3 0c0.6 0 1.6 0 2.2 0 0.60 0.1-0.1-1.1-0.1-1.2 0-1.7 0-1 0.1" fill="#302c4c"/>
</g>
</svg>
